<?xml version="1.0" encoding="UTF-8" standalone="no"?><svg xmlns="http://www.w3.org/2000/svg" xmlns:xlink="http://www.w3.org/1999/xlink" contentScriptType="application/ecmascript" contentStyleType="text/css" height="819px" preserveAspectRatio="none" style="width:563px;height:819px;background:#FFFFFF;" version="1.1" viewBox="0 0 563 819" width="563px" zoomAndPan="magnify"><defs><filter height="300%" id="fv7akyxkv4jn7" width="300%" x="-1" y="-1"><feGaussianBlur result="blurOut" stdDeviation="2.0"/><feColorMatrix in="blurOut" result="blurOut2" type="matrix" values="0 0 0 0 0 0 0 0 0 0 0 0 0 0 0 0 0 0 .4 0"/><feOffset dx="4.0" dy="4.0" in="blurOut2" result="blurOut3"/><feBlend in="SourceGraphic" in2="blurOut3" mode="normal"/></filter></defs><g><!--MD5=[8413f8248b2da7966d2de021109ec289]
class users--><rect codeLine="2" fill="#FEFECE" filter="url(#fv7akyxkv4jn7)" height="117.1797" id="users" style="stroke:#A80036;stroke-width:1.5;" width="118" x="175" y="184"/><ellipse cx="214.3" cy="200" fill="#ADD1B2" rx="11" ry="11" style="stroke:#A80036;stroke-width:1.0;"/><path d="M217.0031,205.4375 Q216.0813,206.3594 213.8156,206.3594 Q212.55,206.3594 211.6281,205.4375 Q209.9719,203.7813 209.9719,200.25 Q209.9719,196.1406 211.7531,194.3438 Q212.6906,193.4219 213.8781,193.4219 Q216.1438,193.4219 216.8781,194.1406 Q218.2688,195.5469 218.2063,197.9375 L215.7375,197.9375 Q215.675,195.8125 214.9406,195.0781 Q214.55,194.6719 213.8781,194.6719 Q213.8781,194.6719 213.8156,195.1406 Q212.4875,196.4688 212.4875,200.125 Q212.4875,203.3125 213.6281,204.4375 Q214.1594,204.9688 214.1594,204.9688 Q214.4094,204.9688 214.9406,204.4375 Q215.6125,203.7813 215.675,201.3906 L218.2688,201.3906 Q218.0656,204.375 217.0031,205.4375 Z " fill="#000000"/><text fill="#000000" font-family="sans-serif" font-size="12" lengthAdjust="spacing" textLength="32" x="233.7" y="204.9102">users</text><line style="stroke:#A80036;stroke-width:1.5;" x1="176" x2="292" y1="216" y2="216"/><ellipse cx="186" cy="227" fill="#84BE84" rx="3" ry="3" style="stroke:#038048;stroke-width:1.0;"/><text fill="#000000" font-family="sans-serif" font-size="11" lengthAdjust="spacing" textLength="77" x="195" y="231.4189">uuid : String(32)</text><line style="stroke:#A80036;stroke-width:1.0;" x1="176" x2="292" y1="237.8359" y2="237.8359"/><text fill="#000000" font-family="sans-serif" font-size="11" lengthAdjust="spacing" textLength="83" x="181" y="253.2549">name : String(64)</text><text fill="#000000" font-family="sans-serif" font-size="11" lengthAdjust="spacing" textLength="81" x="181" y="267.0908">mail : String(240)</text><text fill="#000000" font-family="sans-serif" font-size="11" lengthAdjust="spacing" textLength="60" x="181" y="280.9268">birth : Data()</text><text fill="#000000" font-family="sans-serif" font-size="11" lengthAdjust="spacing" textLength="106" x="181" y="294.7627">timestamp : Datetime()</text><!--MD5=[e3f72718913f1e037c5bc72e44de49f6]
class client--><rect codeLine="15" fill="#FEFECE" filter="url(#fv7akyxkv4jn7)" height="89.5078" id="client" style="stroke:#A80036;stroke-width:1.5;" width="119" x="20.5" y="197.5"/><ellipse cx="61.6" cy="213.5" fill="#ADD1B2" rx="11" ry="11" style="stroke:#A80036;stroke-width:1.0;"/><path d="M64.3031,218.9375 Q63.3813,219.8594 61.1156,219.8594 Q59.85,219.8594 58.9281,218.9375 Q57.2719,217.2813 57.2719,213.75 Q57.2719,209.6406 59.0531,207.8438 Q59.9906,206.9219 61.1781,206.9219 Q63.4438,206.9219 64.1781,207.6406 Q65.5688,209.0469 65.5063,211.4375 L63.0375,211.4375 Q62.975,209.3125 62.2406,208.5781 Q61.85,208.1719 61.1781,208.1719 Q61.1781,208.1719 61.1156,208.6406 Q59.7875,209.9688 59.7875,213.625 Q59.7875,216.8125 60.9281,217.9375 Q61.4594,218.4688 61.4594,218.4688 Q61.7094,218.4688 62.2406,217.9375 Q62.9125,217.2813 62.975,214.8906 L65.5688,214.8906 Q65.3656,217.875 64.3031,218.9375 Z " fill="#000000"/><text fill="#000000" font-family="sans-serif" font-size="12" lengthAdjust="spacing" textLength="29" x="81.4" y="218.4102">client</text><line style="stroke:#A80036;stroke-width:1.5;" x1="21.5" x2="138.5" y1="229.5" y2="229.5"/><ellipse cx="31.5" cy="240.5" fill="#84BE84" rx="3" ry="3" style="stroke:#038048;stroke-width:1.0;"/><text fill="#000000" font-family="sans-serif" font-size="11" lengthAdjust="spacing" textLength="93" x="40.5" y="244.9189">user_id : String(32)</text><line style="stroke:#A80036;stroke-width:1.0;" x1="21.5" x2="138.5" y1="251.3359" y2="251.3359"/><text fill="#000000" font-family="sans-serif" font-size="11" lengthAdjust="spacing" textLength="80" x="26.5" y="266.7549">status : Boolen()</text><text fill="#000000" font-family="sans-serif" font-size="11" lengthAdjust="spacing" textLength="106" x="26.5" y="280.5908">timestamp : Datetime()</text><!--MD5=[fd1130adc2e6c8dd278ff904e2f06126]
class menta--><rect codeLine="27" fill="#FEFECE" filter="url(#fv7akyxkv4jn7)" height="117.1797" id="menta" style="stroke:#A80036;stroke-width:1.5;" width="119" x="328.5" y="184"/><ellipse cx="366.9" cy="200" fill="#ADD1B2" rx="11" ry="11" style="stroke:#A80036;stroke-width:1.0;"/><path d="M369.6031,205.4375 Q368.6813,206.3594 366.4156,206.3594 Q365.15,206.3594 364.2281,205.4375 Q362.5719,203.7813 362.5719,200.25 Q362.5719,196.1406 364.3531,194.3438 Q365.2906,193.4219 366.4781,193.4219 Q368.7438,193.4219 369.4781,194.1406 Q370.8688,195.5469 370.8063,197.9375 L368.3375,197.9375 Q368.275,195.8125 367.5406,195.0781 Q367.15,194.6719 366.4781,194.6719 Q366.4781,194.6719 366.4156,195.1406 Q365.0875,196.4688 365.0875,200.125 Q365.0875,203.3125 366.2281,204.4375 Q366.7594,204.9688 366.7594,204.9688 Q367.0094,204.9688 367.5406,204.4375 Q368.2125,203.7813 368.275,201.3906 L370.8688,201.3906 Q370.6656,204.375 369.6031,205.4375 Z " fill="#000000"/><text fill="#000000" font-family="sans-serif" font-size="12" lengthAdjust="spacing" textLength="35" x="386.1" y="204.9102">menta</text><line style="stroke:#A80036;stroke-width:1.5;" x1="329.5" x2="446.5" y1="216" y2="216"/><ellipse cx="339.5" cy="227" fill="#84BE84" rx="3" ry="3" style="stroke:#038048;stroke-width:1.0;"/><text fill="#000000" font-family="sans-serif" font-size="11" lengthAdjust="spacing" textLength="93" x="348.5" y="231.4189">user_id : String(32)</text><line style="stroke:#A80036;stroke-width:1.0;" x1="329.5" x2="446.5" y1="237.8359" y2="237.8359"/><text fill="#000000" font-family="sans-serif" font-size="11" lengthAdjust="spacing" textLength="99" x="334.5" y="253.2549">profile : String(1024)</text><text fill="#000000" font-family="sans-serif" font-size="11" lengthAdjust="spacing" textLength="75" x="334.5" y="267.0908">url : String(124)</text><text fill="#000000" font-family="sans-serif" font-size="11" lengthAdjust="spacing" textLength="80" x="334.5" y="280.9268">status : Boolen()</text><text fill="#000000" font-family="sans-serif" font-size="11" lengthAdjust="spacing" textLength="106" x="334.5" y="294.7627">timestamp : Datetime()</text><!--MD5=[ba05d8bf4f00d6c84b3b478bf3c7c054]
class review--><rect codeLine="46" fill="#FEFECE" filter="url(#fv7akyxkv4jn7)" height="131.0156" id="review" style="stroke:#A80036;stroke-width:1.5;" width="138" x="72" y="361"/><ellipse cx="119.25" cy="377" fill="#ADD1B2" rx="11" ry="11" style="stroke:#A80036;stroke-width:1.0;"/><path d="M121.9531,382.4375 Q121.0313,383.3594 118.7656,383.3594 Q117.5,383.3594 116.5781,382.4375 Q114.9219,380.7813 114.9219,377.25 Q114.9219,373.1406 116.7031,371.3438 Q117.6406,370.4219 118.8281,370.4219 Q121.0938,370.4219 121.8281,371.1406 Q123.2188,372.5469 123.1563,374.9375 L120.6875,374.9375 Q120.625,372.8125 119.8906,372.0781 Q119.5,371.6719 118.8281,371.6719 Q118.8281,371.6719 118.7656,372.1406 Q117.4375,373.4688 117.4375,377.125 Q117.4375,380.3125 118.5781,381.4375 Q119.1094,381.9688 119.1094,381.9688 Q119.3594,381.9688 119.8906,381.4375 Q120.5625,380.7813 120.625,378.3906 L123.2188,378.3906 Q123.0156,381.375 121.9531,382.4375 Z " fill="#000000"/><text fill="#000000" font-family="sans-serif" font-size="12" lengthAdjust="spacing" textLength="35" x="139.75" y="381.9102">review</text><line style="stroke:#A80036;stroke-width:1.5;" x1="73" x2="209" y1="393" y2="393"/><ellipse cx="83" cy="404" fill="#84BE84" rx="3" ry="3" style="stroke:#038048;stroke-width:1.0;"/><text fill="#000000" font-family="sans-serif" font-size="11" lengthAdjust="spacing" textLength="65" x="92" y="408.4189">id : String(32)</text><line style="stroke:#A80036;stroke-width:1.0;" x1="73" x2="209" y1="414.8359" y2="414.8359"/><polygon fill="#FFFF44" points="83,420.8359,87,424.8359,83,428.8359,79,424.8359" style="stroke:#B38D22;stroke-width:1.0;"/><text fill="#000000" font-family="sans-serif" font-size="11" lengthAdjust="spacing" textLength="100" x="92" y="430.2549">menta_id : String(32)</text><polygon fill="#FFFF44" points="83,434.6719,87,438.6719,83,442.6719,79,438.6719" style="stroke:#B38D22;stroke-width:1.0;"/><text fill="#000000" font-family="sans-serif" font-size="11" lengthAdjust="spacing" textLength="96" x="92" y="444.0908">client_id : String(32)</text><text fill="#000000" font-family="sans-serif" font-size="11" lengthAdjust="spacing" textLength="53" x="92" y="457.9268">star : Int(1)</text><text fill="#000000" font-family="sans-serif" font-size="11" lengthAdjust="spacing" textLength="112" x="92" y="471.7627">comment : String(1024)</text><text fill="#000000" font-family="sans-serif" font-size="11" lengthAdjust="spacing" textLength="106" x="92" y="485.5986">timestamp : Datetime()</text><!--MD5=[386483e524645920ec80042177357ab9]
class tag--><rect codeLine="56" fill="#FEFECE" filter="url(#fv7akyxkv4jn7)" height="89.5078" id="tag" style="stroke:#A80036;stroke-width:1.5;" width="118" x="247" y="552"/><ellipse cx="293.25" cy="568" fill="#ADD1B2" rx="11" ry="11" style="stroke:#A80036;stroke-width:1.0;"/><path d="M295.9531,573.4375 Q295.0313,574.3594 292.7656,574.3594 Q291.5,574.3594 290.5781,573.4375 Q288.9219,571.7813 288.9219,568.25 Q288.9219,564.1406 290.7031,562.3438 Q291.6406,561.4219 292.8281,561.4219 Q295.0938,561.4219 295.8281,562.1406 Q297.2188,563.5469 297.1563,565.9375 L294.6875,565.9375 Q294.625,563.8125 293.8906,563.0781 Q293.5,562.6719 292.8281,562.6719 Q292.8281,562.6719 292.7656,563.1406 Q291.4375,564.4688 291.4375,568.125 Q291.4375,571.3125 292.5781,572.4375 Q293.1094,572.9688 293.1094,572.9688 Q293.3594,572.9688 293.8906,572.4375 Q294.5625,571.7813 294.625,569.3906 L297.2188,569.3906 Q297.0156,572.375 295.9531,573.4375 Z " fill="#000000"/><text fill="#000000" font-family="sans-serif" font-size="12" lengthAdjust="spacing" textLength="17" x="313.75" y="572.9102">tag</text><line style="stroke:#A80036;stroke-width:1.5;" x1="248" x2="364" y1="584" y2="584"/><ellipse cx="258" cy="595" fill="#84BE84" rx="3" ry="3" style="stroke:#038048;stroke-width:1.0;"/><text fill="#000000" font-family="sans-serif" font-size="11" lengthAdjust="spacing" textLength="65" x="267" y="599.4189">id : String(32)</text><line style="stroke:#A80036;stroke-width:1.0;" x1="248" x2="364" y1="605.8359" y2="605.8359"/><text fill="#000000" font-family="sans-serif" font-size="11" lengthAdjust="spacing" textLength="83" x="253" y="621.2549">name : String(32)</text><text fill="#000000" font-family="sans-serif" font-size="11" lengthAdjust="spacing" textLength="106" x="253" y="635.0908">timestamp : Datetime()</text><!--MD5=[d7911f09136aed6ea6542adbda98b581]
class client_tag--><rect codeLine="66" fill="#FEFECE" filter="url(#fv7akyxkv4jn7)" height="103.3438" id="client_tag" style="stroke:#A80036;stroke-width:1.5;" width="132" x="9" y="702"/><ellipse cx="45.15" cy="718" fill="#ADD1B2" rx="11" ry="11" style="stroke:#A80036;stroke-width:1.0;"/><path d="M47.8531,723.4375 Q46.9313,724.3594 44.6656,724.3594 Q43.4,724.3594 42.4781,723.4375 Q40.8219,721.7813 40.8219,718.25 Q40.8219,714.1406 42.6031,712.3438 Q43.5406,711.4219 44.7281,711.4219 Q46.9938,711.4219 47.7281,712.1406 Q49.1188,713.5469 49.0563,715.9375 L46.5875,715.9375 Q46.525,713.8125 45.7906,713.0781 Q45.4,712.6719 44.7281,712.6719 Q44.7281,712.6719 44.6656,713.1406 Q43.3375,714.4688 43.3375,718.125 Q43.3375,721.3125 44.4781,722.4375 Q45.0094,722.9688 45.0094,722.9688 Q45.2594,722.9688 45.7906,722.4375 Q46.4625,721.7813 46.525,719.3906 L49.1188,719.3906 Q48.9156,722.375 47.8531,723.4375 Z " fill="#000000"/><text fill="#000000" font-family="sans-serif" font-size="12" lengthAdjust="spacing" textLength="53" x="63.85" y="722.9102">client_tag</text><line style="stroke:#A80036;stroke-width:1.5;" x1="10" x2="140" y1="734" y2="734"/><ellipse cx="20" cy="745" fill="#84BE84" rx="3" ry="3" style="stroke:#038048;stroke-width:1.0;"/><text fill="#000000" font-family="sans-serif" font-size="11" lengthAdjust="spacing" textLength="65" x="29" y="749.4189">id : String(32)</text><line style="stroke:#A80036;stroke-width:1.0;" x1="10" x2="140" y1="755.8359" y2="755.8359"/><polygon fill="#FFFF44" points="20,761.8359,24,765.8359,20,769.8359,16,765.8359" style="stroke:#B38D22;stroke-width:1.0;"/><text fill="#000000" font-family="sans-serif" font-size="11" lengthAdjust="spacing" textLength="96" x="29" y="771.2549">client_id : String(32)</text><polygon fill="#FFFF44" points="20,775.6719,24,779.6719,20,783.6719,16,779.6719" style="stroke:#B38D22;stroke-width:1.0;"/><text fill="#000000" font-family="sans-serif" font-size="11" lengthAdjust="spacing" textLength="86" x="29" y="785.0908">tag_id : String(32)</text><text fill="#000000" font-family="sans-serif" font-size="11" lengthAdjust="spacing" textLength="106" x="29" y="798.9268">timestamp : Datetime()</text><!--MD5=[2bc6c74f0d90f2903df4590535b405a7]
class menta_tag--><rect codeLine="77" fill="#FEFECE" filter="url(#fv7akyxkv4jn7)" height="117.1797" id="menta_tag" style="stroke:#A80036;stroke-width:1.5;" width="137" x="412.5" y="368"/><ellipse cx="448.2" cy="384" fill="#ADD1B2" rx="11" ry="11" style="stroke:#A80036;stroke-width:1.0;"/><path d="M450.9031,389.4375 Q449.9813,390.3594 447.7156,390.3594 Q446.45,390.3594 445.5281,389.4375 Q443.8719,387.7813 443.8719,384.25 Q443.8719,380.1406 445.6531,378.3438 Q446.5906,377.4219 447.7781,377.4219 Q450.0438,377.4219 450.7781,378.1406 Q452.1688,379.5469 452.1063,381.9375 L449.6375,381.9375 Q449.575,379.8125 448.8406,379.0781 Q448.45,378.6719 447.7781,378.6719 Q447.7781,378.6719 447.7156,379.1406 Q446.3875,380.4688 446.3875,384.125 Q446.3875,387.3125 447.5281,388.4375 Q448.0594,388.9688 448.0594,388.9688 Q448.3094,388.9688 448.8406,388.4375 Q449.5125,387.7813 449.575,385.3906 L452.1688,385.3906 Q451.9656,388.375 450.9031,389.4375 Z " fill="#000000"/><text fill="#000000" font-family="sans-serif" font-size="12" lengthAdjust="spacing" textLength="59" x="466.8" y="388.9102">menta_tag</text><line style="stroke:#A80036;stroke-width:1.5;" x1="413.5" x2="548.5" y1="400" y2="400"/><ellipse cx="423.5" cy="411" fill="#84BE84" rx="3" ry="3" style="stroke:#038048;stroke-width:1.0;"/><text fill="#000000" font-family="sans-serif" font-size="11" lengthAdjust="spacing" textLength="65" x="432.5" y="415.4189">id : String(32)</text><line style="stroke:#A80036;stroke-width:1.0;" x1="413.5" x2="548.5" y1="421.8359" y2="421.8359"/><polygon fill="#FFFF44" points="423.5,427.8359,427.5,431.8359,423.5,435.8359,419.5,431.8359" style="stroke:#B38D22;stroke-width:1.0;"/><text fill="#000000" font-family="sans-serif" font-size="11" lengthAdjust="spacing" textLength="100" x="432.5" y="437.2549">menta_id : String(32)</text><polygon fill="#FFFF44" points="423.5,441.6719,427.5,445.6719,423.5,449.6719,419.5,445.6719" style="stroke:#B38D22;stroke-width:1.0;"/><text fill="#000000" font-family="sans-serif" font-size="11" lengthAdjust="spacing" textLength="86" x="432.5" y="451.0908">tag_id : String(32)</text><text fill="#000000" font-family="sans-serif" font-size="11" lengthAdjust="spacing" textLength="111" x="432.5" y="464.9268">experience : String(32)</text><text fill="#000000" font-family="sans-serif" font-size="11" lengthAdjust="spacing" textLength="106" x="432.5" y="478.7627">timestamp : Datetime()</text><!--MD5=[95b683c1b1f07077491d9b9a1eb4d251]
class like--><rect codeLine="86" fill="#FEFECE" filter="url(#fv7akyxkv4jn7)" height="117.1797" id="like" style="stroke:#A80036;stroke-width:1.5;" width="132" x="245" y="368"/><ellipse cx="297.25" cy="384" fill="#ADD1B2" rx="11" ry="11" style="stroke:#A80036;stroke-width:1.0;"/><path d="M299.9531,389.4375 Q299.0313,390.3594 296.7656,390.3594 Q295.5,390.3594 294.5781,389.4375 Q292.9219,387.7813 292.9219,384.25 Q292.9219,380.1406 294.7031,378.3438 Q295.6406,377.4219 296.8281,377.4219 Q299.0938,377.4219 299.8281,378.1406 Q301.2188,379.5469 301.1563,381.9375 L298.6875,381.9375 Q298.625,379.8125 297.8906,379.0781 Q297.5,378.6719 296.8281,378.6719 Q296.8281,378.6719 296.7656,379.1406 Q295.4375,380.4688 295.4375,384.125 Q295.4375,387.3125 296.5781,388.4375 Q297.1094,388.9688 297.1094,388.9688 Q297.3594,388.9688 297.8906,388.4375 Q298.5625,387.7813 298.625,385.3906 L301.2188,385.3906 Q301.0156,388.375 299.9531,389.4375 Z " fill="#000000"/><text fill="#000000" font-family="sans-serif" font-size="12" lengthAdjust="spacing" textLength="19" x="317.75" y="388.9102">like</text><line style="stroke:#A80036;stroke-width:1.5;" x1="246" x2="376" y1="400" y2="400"/><ellipse cx="256" cy="411" fill="#84BE84" rx="3" ry="3" style="stroke:#038048;stroke-width:1.0;"/><text fill="#000000" font-family="sans-serif" font-size="11" lengthAdjust="spacing" textLength="65" x="265" y="415.4189">id : String(32)</text><line style="stroke:#A80036;stroke-width:1.0;" x1="246" x2="376" y1="421.8359" y2="421.8359"/><polygon fill="#FFFF44" points="256,427.8359,260,431.8359,256,435.8359,252,431.8359" style="stroke:#B38D22;stroke-width:1.0;"/><text fill="#000000" font-family="sans-serif" font-size="11" lengthAdjust="spacing" textLength="100" x="265" y="437.2549">menta_id : String(32)</text><polygon fill="#FFFF44" points="256,441.6719,260,445.6719,256,449.6719,252,445.6719" style="stroke:#B38D22;stroke-width:1.0;"/><text fill="#000000" font-family="sans-serif" font-size="11" lengthAdjust="spacing" textLength="96" x="265" y="451.0908">client_id : String(32)</text><text fill="#000000" font-family="sans-serif" font-size="11" lengthAdjust="spacing" textLength="74" x="265" y="464.9268">status : Bool(1)</text><text fill="#000000" font-family="sans-serif" font-size="11" lengthAdjust="spacing" textLength="106" x="265" y="478.7627">timestamp : Datetime()</text><!--MD5=[5c19f40aa9512e90106447142f5d7dc3]
class contract--><rect codeLine="102" fill="#FEFECE" filter="url(#fv7akyxkv4jn7)" height="103.3438" id="contract" style="stroke:#A80036;stroke-width:1.5;" width="132" x="84" y="14"/><ellipse cx="124.65" cy="30" fill="#ADD1B2" rx="11" ry="11" style="stroke:#A80036;stroke-width:1.0;"/><path d="M127.3531,35.4375 Q126.4313,36.3594 124.1656,36.3594 Q122.9,36.3594 121.9781,35.4375 Q120.3219,33.7813 120.3219,30.25 Q120.3219,26.1406 122.1031,24.3438 Q123.0406,23.4219 124.2281,23.4219 Q126.4938,23.4219 127.2281,24.1406 Q128.6188,25.5469 128.5563,27.9375 L126.0875,27.9375 Q126.025,25.8125 125.2906,25.0781 Q124.9,24.6719 124.2281,24.6719 Q124.2281,24.6719 124.1656,25.1406 Q122.8375,26.4688 122.8375,30.125 Q122.8375,33.3125 123.9781,34.4375 Q124.5094,34.9688 124.5094,34.9688 Q124.7594,34.9688 125.2906,34.4375 Q125.9625,33.7813 126.025,31.3906 L128.6188,31.3906 Q128.4156,34.375 127.3531,35.4375 Z " fill="#000000"/><text fill="#000000" font-family="sans-serif" font-size="12" lengthAdjust="spacing" textLength="43" x="144.35" y="34.9102">contract</text><line style="stroke:#A80036;stroke-width:1.5;" x1="85" x2="215" y1="46" y2="46"/><ellipse cx="95" cy="57" fill="#84BE84" rx="3" ry="3" style="stroke:#038048;stroke-width:1.0;"/><text fill="#000000" font-family="sans-serif" font-size="11" lengthAdjust="spacing" textLength="62" x="104" y="61.4189">id :String(32)</text><line style="stroke:#A80036;stroke-width:1.0;" x1="85" x2="215" y1="67.8359" y2="67.8359"/><polygon fill="#FFFF44" points="95,73.8359,99,77.8359,95,81.8359,91,77.8359" style="stroke:#B38D22;stroke-width:1.0;"/><text fill="#000000" font-family="sans-serif" font-size="11" lengthAdjust="spacing" textLength="97" x="104" y="83.2549">menta_id: String(32)</text><polygon fill="#FFFF44" points="95,87.6719,99,91.6719,95,95.6719,91,91.6719" style="stroke:#B38D22;stroke-width:1.0;"/><text fill="#000000" font-family="sans-serif" font-size="11" lengthAdjust="spacing" textLength="93" x="104" y="97.0908">client_id: String(32)</text><text fill="#000000" font-family="sans-serif" font-size="11" lengthAdjust="spacing" textLength="106" x="104" y="110.9268">timestamp : Datetime()</text><!--MD5=[61b79dafd5b2738e8529a55c83a16b82]
class none--><rect codeLine="113" fill="#FEFECE" filter="url(#fv7akyxkv4jn7)" height="117.1797" id="none" style="stroke:#A80036;stroke-width:1.5;" width="132" x="286" y="7"/><ellipse cx="333.75" cy="23" fill="#ADD1B2" rx="11" ry="11" style="stroke:#A80036;stroke-width:1.0;"/><path d="M336.4531,28.4375 Q335.5313,29.3594 333.2656,29.3594 Q332,29.3594 331.0781,28.4375 Q329.4219,26.7813 329.4219,23.25 Q329.4219,19.1406 331.2031,17.3438 Q332.1406,16.4219 333.3281,16.4219 Q335.5938,16.4219 336.3281,17.1406 Q337.7188,18.5469 337.6563,20.9375 L335.1875,20.9375 Q335.125,18.8125 334.3906,18.0781 Q334,17.6719 333.3281,17.6719 Q333.3281,17.6719 333.2656,18.1406 Q331.9375,19.4688 331.9375,23.125 Q331.9375,26.3125 333.0781,27.4375 Q333.6094,27.9688 333.6094,27.9688 Q333.8594,27.9688 334.3906,27.4375 Q335.0625,26.7813 335.125,24.3906 L337.7188,24.3906 Q337.5156,27.375 336.4531,28.4375 Z " fill="#000000"/><text fill="#000000" font-family="sans-serif" font-size="12" lengthAdjust="spacing" textLength="28" x="354.25" y="27.9102">none</text><line style="stroke:#A80036;stroke-width:1.5;" x1="287" x2="417" y1="39" y2="39"/><ellipse cx="297" cy="50" fill="#84BE84" rx="3" ry="3" style="stroke:#038048;stroke-width:1.0;"/><text fill="#000000" font-family="sans-serif" font-size="11" lengthAdjust="spacing" textLength="65" x="306" y="54.4189">id : String(32)</text><line style="stroke:#A80036;stroke-width:1.0;" x1="287" x2="417" y1="60.8359" y2="60.8359"/><polygon fill="#FFFF44" points="297,66.8359,301,70.8359,297,74.8359,293,70.8359" style="stroke:#B38D22;stroke-width:1.0;"/><text fill="#000000" font-family="sans-serif" font-size="11" lengthAdjust="spacing" textLength="100" x="306" y="76.2549">menta_id : String(32)</text><polygon fill="#FFFF44" points="297,80.6719,301,84.6719,297,88.6719,293,84.6719" style="stroke:#B38D22;stroke-width:1.0;"/><text fill="#000000" font-family="sans-serif" font-size="11" lengthAdjust="spacing" textLength="96" x="306" y="90.0908">client_id : String(32)</text><text fill="#000000" font-family="sans-serif" font-size="11" lengthAdjust="spacing" textLength="60" x="306" y="103.9268">date : Date()</text><text fill="#000000" font-family="sans-serif" font-size="11" lengthAdjust="spacing" textLength="106" x="306" y="117.7627">timestamp : Datetime()</text><!--MD5=[3f8dfa06881e5c63ecc48caee1f8c23e]
link client to users--><path codeLine="134" d="M139.55,242.5 C151.36,242.5 163.17,242.5 174.97,242.5 " fill="none" id="client-users" style="stroke:#A80036;stroke-width:1.0;"/><!--MD5=[03e818f0ac14b65b45132e236d4503e7]
link users to menta--><path codeLine="135" d="M293.25,242.5 C304.97,242.5 316.69,242.5 328.41,242.5 " fill="none" id="users-menta" style="stroke:#A80036;stroke-width:1.0;"/><!--MD5=[c6e7ba2a414f6130840e0f510acaf3ee]
link client to like--><path codeLine="136" d="M135.92,287.56 C166.71,311.82 205.29,342.21 238.39,368.29 " fill="none" id="client-to-like" style="stroke:#A80036;stroke-width:1.0;"/><line style="stroke:#A80036;stroke-width:1.0;" x1="238.6484" x2="244.93" y1="368.4961" y2="367.1684"/><line style="stroke:#A80036;stroke-width:1.0;" x1="238.6484" x2="244.93" y1="368.4961" y2="379.7316"/><line style="stroke:#A80036;stroke-width:1.0;" x1="238.6484" x2="244.93" y1="368.4961" y2="373.45"/><!--MD5=[4b4f66a22fdf7e2a600f5c799ca0290c]
link menta to like--><path codeLine="137" d="M363.64,301.09 C355.66,319.93 346.75,341 338.56,360.36 " fill="none" id="menta-to-like" style="stroke:#A80036;stroke-width:1.0;"/><line style="stroke:#A80036;stroke-width:1.0;" x1="338.4585" x2="342.7071" y1="360.6129" y2="367.98"/><line style="stroke:#A80036;stroke-width:1.0;" x1="338.4585" x2="327.9729" y1="360.6129" y2="367.98"/><line style="stroke:#A80036;stroke-width:1.0;" x1="338.4585" x2="335.34" y1="360.6129" y2="367.98"/><!--MD5=[096c45a37040f0bc59af758e8dc0084d]
link contract to client--><path codeLine="138" d="M129.75,117.12 C120.65,139.88 109.91,166.72 100.75,189.63 " fill="none" id="contract-to-client" style="stroke:#A80036;stroke-width:1.0;"/><line style="stroke:#A80036;stroke-width:1.0;" x1="100.6711" x2="105.1278" y1="189.8122" y2="197.24"/><line style="stroke:#A80036;stroke-width:1.0;" x1="100.6711" x2="90.2722" y1="189.8122" y2="197.24"/><line style="stroke:#A80036;stroke-width:1.0;" x1="100.6711" x2="97.7" y1="189.8122" y2="197.24"/><!--MD5=[336ad18a4fc2ffa923cb1868d194f95e]
link contract to menta--><path codeLine="139" d="M216.31,114.64 C245.42,135.84 279.96,161.08 311,184 C314.52,186.6 318.13,189.27 321.78,191.97 " fill="none" id="contract-to-menta" style="stroke:#A80036;stroke-width:1.0;"/><line style="stroke:#A80036;stroke-width:1.0;" x1="321.9361" x2="328.36" y1="192.092" y2="190.4361"/><line style="stroke:#A80036;stroke-width:1.0;" x1="321.9361" x2="328.36" y1="192.092" y2="203.2839"/><line style="stroke:#A80036;stroke-width:1.0;" x1="321.9361" x2="328.36" y1="192.092" y2="196.86"/><!--MD5=[ce606ef64e3f7cf2948bb849aa1afd20]
reverse link none to client--><path codeLine="140" d="M278.7,108.35 C241.67,130.07 196.36,157.54 157,184 C150.77,188.19 144.35,192.68 138,197.24 " fill="none" id="none-backto-client" style="stroke:#A80036;stroke-width:1.0;"/><line style="stroke:#A80036;stroke-width:1.0;" x1="279.0839" x2="285.99" y1="108.1181" y2="97.1739"/><line style="stroke:#A80036;stroke-width:1.0;" x1="279.0839" x2="285.99" y1="108.1181" y2="110.9861"/><line style="stroke:#A80036;stroke-width:1.0;" x1="279.0839" x2="285.99" y1="108.1181" y2="104.08"/><!--MD5=[bb9d41c3d3ff7bc48b73c642d9b053e5]
link none to menta--><path codeLine="141" d="M363.89,124.29 C367.27,140.71 370.97,158.73 374.44,175.6 " fill="none" id="none-to-menta" style="stroke:#A80036;stroke-width:1.0;"/><line style="stroke:#A80036;stroke-width:1.0;" x1="374.5072" x2="383.9557" y1="175.9343" y2="183.77"/><line style="stroke:#A80036;stroke-width:1.0;" x1="374.5072" x2="368.2843" y1="175.9343" y2="183.77"/><line style="stroke:#A80036;stroke-width:1.0;" x1="374.5072" x2="376.12" y1="175.9343" y2="183.77"/><!--MD5=[a22e4fb2c2d0e68b1aed536373d6f473]
link tag to client_tag--><path codeLine="142" d="M246.81,637.59 C216.74,657.7 179.91,682.33 148.08,703.62 " fill="none" id="tag-to-client_tag" style="stroke:#A80036;stroke-width:1.0;"/><line style="stroke:#A80036;stroke-width:1.0;" x1="148.0176" x2="141.37" y1="703.6592" y2="714.7576"/><line style="stroke:#A80036;stroke-width:1.0;" x1="148.0176" x2="141.37" y1="703.6592" y2="701.4624"/><line style="stroke:#A80036;stroke-width:1.0;" x1="148.0176" x2="141.37" y1="703.6592" y2="708.11"/><!--MD5=[920d0215737600301cd2af09d49a3ca3]
reverse link menta_tag to tag--><path codeLine="143" d="M415.36,490.7 C394.25,511.03 371.32,533.11 351.93,551.77 " fill="none" id="menta_tag-backto-tag" style="stroke:#A80036;stroke-width:1.0;"/><line style="stroke:#A80036;stroke-width:1.0;" x1="415.4969" x2="415.7114" y1="490.5686" y2="485.02"/><line style="stroke:#A80036;stroke-width:1.0;" x1="415.4969" x2="426.8086" y1="490.5686" y2="485.02"/><line style="stroke:#A80036;stroke-width:1.0;" x1="415.4969" x2="421.26" y1="490.5686" y2="485.02"/><!--MD5=[7e852d3902acfcb2212851a0a217ff1a]
link client to client_tag--><path codeLine="144" d="M67.82,287.76 C62.41,309.61 56.68,336.49 54,361 C41.14,478.68 55.44,617.15 65.94,693.85 " fill="none" id="client-to-client_tag" style="stroke:#A80036;stroke-width:1.0;"/><line style="stroke:#A80036;stroke-width:1.0;" x1="65.9687" x2="74.9938" y1="694.0662" y2="701.99"/><line style="stroke:#A80036;stroke-width:1.0;" x1="65.9687" x2="59.1462" y1="694.0662" y2="701.99"/><line style="stroke:#A80036;stroke-width:1.0;" x1="65.9687" x2="67.07" y1="694.0662" y2="701.99"/><!--MD5=[f0a42e61a63e6e0bb25c2d0526302b52]
link menta to menta_tag--><path codeLine="145" d="M417.43,301.09 C427.1,320.02 437.92,341.19 447.85,360.62 " fill="none" id="menta-to-menta_tag" style="stroke:#A80036;stroke-width:1.0;"/><line style="stroke:#A80036;stroke-width:1.0;" x1="447.9696" x2="458.7337" y1="360.8563" y2="367.98"/><line style="stroke:#A80036;stroke-width:1.0;" x1="447.9696" x2="444.4863" y1="360.8563" y2="367.98"/><line style="stroke:#A80036;stroke-width:1.0;" x1="447.9696" x2="451.61" y1="360.8563" y2="367.98"/><!--MD5=[0304de5560c68b2f43d9628c9ad9737a]
reverse link client to review--><path codeLine="146" d="M97.33,295.21 C104.18,315.63 112.11,339.32 119.33,360.85 " fill="none" id="client-backto-review" style="stroke:#A80036;stroke-width:1.0;"/><line style="stroke:#A80036;stroke-width:1.0;" x1="97.3127" x2="87.1848" y1="295.1452" y2="287.56"/><line style="stroke:#A80036;stroke-width:1.0;" x1="97.3127" x2="102.3552" y1="295.1452" y2="287.56"/><line style="stroke:#A80036;stroke-width:1.0;" x1="97.3127" x2="94.77" y1="295.1452" y2="287.56"/><!--MD5=[840f0d10f39b608aed886aeb34cebefb]
link menta to review--><path codeLine="147" d="M328.38,288.17 C322.51,292.52 316.65,296.85 311,301 C274.32,327.95 264.73,334.11 228,361 C224.4,363.64 220.71,366.34 217,369.08 " fill="none" id="menta-to-review" style="stroke:#A80036;stroke-width:1.0;"/><line style="stroke:#A80036;stroke-width:1.0;" x1="216.7176" x2="210.28" y1="369.2705" y2="380.4576"/><line style="stroke:#A80036;stroke-width:1.0;" x1="216.7176" x2="210.28" y1="369.2705" y2="367.5824"/><line style="stroke:#A80036;stroke-width:1.0;" x1="216.7176" x2="210.28" y1="369.2705" y2="374.02"/><!--MD5=[268bd826b70e2b56a0efa1a124d9aa2f]
@startuml ER

class users {
    + uuid : String(32)
    - - -
    name : String(64)
    mail : String(240)
    birth : Data()
    timestamp : Datetime()
}
/'
    全ユーザー
    birth: 誕生日
'/

class client {
    + user_id : String(32)
    - - -
    status : Boolen()
    timestamp : Datetime()
}
/'
    クライアント
    status: 有効状態
    false or true
'/

class menta {
    + user_id : String(32)
    - - -
    profile : String(1024)
    url : String(124)
    status : Boolen()
    timestamp : Datetime()
}
/'
    メンター

    profile: ポートフォリオ
    url:  youtube url
    status: 有効状態
    
    終了条件をプロフィールに明示する
    完了せずに契約終了した場合返金処理
'/

class review {
    + id : String(32)
    - - -
    # menta_id : String(32)
    # client_id : String(32)
    star : Int(1)
    comment : String(1024)
    timestamp : Datetime()
}

class tag {
    + id : String(32)
    - - -
    name : String(32)
    timestamp : Datetime()
}
/'
    分野
'/

class client_tag {
    + id : String(32)
    - - -
    # client_id : String(32)
    # tag_id : String(32)
    timestamp : Datetime()
}
/'
    clientとタグの関連付け
'/  

class menta_tag {
    + id : String(32)
    - - -
    # menta_id : String(32)
    # tag_id : String(32)
    experience : String(32)
    timestamp : Datetime()
}

class like {
    ' 契約前
    + id : String(32)
    - - -
    # menta_id : String(32)
    # client_id : String(32)
    status : Bool(1)
    timestamp : Datetime()
}
/'
    契約前
    menta_id: サービス提供者
    client_id: 依頼者
    status: 1で有効0で無効
'/

class contract {
    + id :String(32)
    - - -
    # menta_id: String(32)
    # client_id: String(32)
    timestamp : Datetime()
}
/'
    契約済み
'/

class none {
    + id : String(32)
    - - -
    # menta_id : String(32)
    # client_id : String(32)
    date : Date()
    timestamp : Datetime()
}
/'
    noneされた人
    一か月表示しない
'/

' class creditcard {
'     # client_id : String(32)
'     number : String(32)
'     name : String(128)
'     limit : String(16)
'     code : String(4)
' }

client - users
users - menta
client - -{ like
menta - -{ like
contract - -{ client
contract - -{ menta
none }- - client
none - -{ menta
tag - -{ client_tag
menta_tag }- - tag
client -{ client_tag
menta - -{ menta_tag
client }- - review 
menta - -{ review
' creditcard }- - client
@enduml

@startuml ER

class users {
    + uuid : String(32)
    - - -
    name : String(64)
    mail : String(240)
    birth : Data()
    timestamp : Datetime()
}

class client {
    + user_id : String(32)
    - - -
    status : Boolen()
    timestamp : Datetime()
}

class menta {
    + user_id : String(32)
    - - -
    profile : String(1024)
    url : String(124)
    status : Boolen()
    timestamp : Datetime()
}

class review {
    + id : String(32)
    - - -
    # menta_id : String(32)
    # client_id : String(32)
    star : Int(1)
    comment : String(1024)
    timestamp : Datetime()
}

class tag {
    + id : String(32)
    - - -
    name : String(32)
    timestamp : Datetime()
}

class client_tag {
    + id : String(32)
    - - -
    # client_id : String(32)
    # tag_id : String(32)
    timestamp : Datetime()
}

class menta_tag {
    + id : String(32)
    - - -
    # menta_id : String(32)
    # tag_id : String(32)
    experience : String(32)
    timestamp : Datetime()
}

class like {
    + id : String(32)
    - - -
    # menta_id : String(32)
    # client_id : String(32)
    status : Bool(1)
    timestamp : Datetime()
}

class contract {
    + id :String(32)
    - - -
    # menta_id: String(32)
    # client_id: String(32)
    timestamp : Datetime()
}

class none {
    + id : String(32)
    - - -
    # menta_id : String(32)
    # client_id : String(32)
    date : Date()
    timestamp : Datetime()
}


client - users
users - menta
client - -{ like
menta - -{ like
contract - -{ client
contract - -{ menta
none }- - client
none - -{ menta
tag - -{ client_tag
menta_tag }- - tag
client -{ client_tag
menta - -{ menta_tag
client }- - review 
menta - -{ review
@enduml

PlantUML version 1.2022.0(Wed Jan 12 01:16:42 JST 2022)
(GPL source distribution)
Java Runtime: Java(TM) SE Runtime Environment
JVM: Java HotSpot(TM) 64-Bit Server VM
Default Encoding: MS932
Language: ja
Country: JP
--></g></svg>