<?xml version="1.0" encoding="UTF-8" standalone="no"?><svg xmlns="http://www.w3.org/2000/svg" xmlns:xlink="http://www.w3.org/1999/xlink" contentScriptType="application/ecmascript" contentStyleType="text/css" height="819px" preserveAspectRatio="none" style="width:563px;height:819px;background:#FFFFFF;" version="1.1" viewBox="0 0 563 819" width="563px" zoomAndPan="magnify"><defs><filter height="300%" id="f3szjc7w7xxfp" width="300%" x="-1" y="-1"><feGaussianBlur result="blurOut" stdDeviation="2.0"/><feColorMatrix in="blurOut" result="blurOut2" type="matrix" values="0 0 0 0 0 0 0 0 0 0 0 0 0 0 0 0 0 0 .4 0"/><feOffset dx="4.0" dy="4.0" in="blurOut2" result="blurOut3"/><feBlend in="SourceGraphic" in2="blurOut3" mode="normal"/></filter></defs><g><!--MD5=[8413f8248b2da7966d2de021109ec289]
class users--><rect codeLine="2" fill="#FEFECE" filter="url(#f3szjc7w7xxfp)" height="117.1797" id="users" style="stroke:#A80036;stroke-width:1.5;" width="118" x="174" y="184"/><ellipse cx="213.3" cy="200" fill="#ADD1B2" rx="11" ry="11" style="stroke:#A80036;stroke-width:1.0;"/><path d="M216.0031,205.4375 Q215.0813,206.3594 212.8156,206.3594 Q211.55,206.3594 210.6281,205.4375 Q208.9719,203.7813 208.9719,200.25 Q208.9719,196.1406 210.7531,194.3438 Q211.6906,193.4219 212.8781,193.4219 Q215.1438,193.4219 215.8781,194.1406 Q217.2688,195.5469 217.2063,197.9375 L214.7375,197.9375 Q214.675,195.8125 213.9406,195.0781 Q213.55,194.6719 212.8781,194.6719 Q212.8781,194.6719 212.8156,195.1406 Q211.4875,196.4688 211.4875,200.125 Q211.4875,203.3125 212.6281,204.4375 Q213.1594,204.9688 213.1594,204.9688 Q213.4094,204.9688 213.9406,204.4375 Q214.6125,203.7813 214.675,201.3906 L217.2688,201.3906 Q217.0656,204.375 216.0031,205.4375 Z " fill="#000000"/><text fill="#000000" font-family="sans-serif" font-size="12" lengthAdjust="spacing" textLength="32" x="232.7" y="204.9102">users</text><line style="stroke:#A80036;stroke-width:1.5;" x1="175" x2="291" y1="216" y2="216"/><ellipse cx="185" cy="227" fill="#84BE84" rx="3" ry="3" style="stroke:#038048;stroke-width:1.0;"/><text fill="#000000" font-family="sans-serif" font-size="11" lengthAdjust="spacing" textLength="77" x="194" y="231.4189">uuid : String(32)</text><line style="stroke:#A80036;stroke-width:1.0;" x1="175" x2="291" y1="237.8359" y2="237.8359"/><text fill="#000000" font-family="sans-serif" font-size="11" lengthAdjust="spacing" textLength="83" x="180" y="253.2549">name : String(64)</text><text fill="#000000" font-family="sans-serif" font-size="11" lengthAdjust="spacing" textLength="81" x="180" y="267.0908">mail : String(240)</text><text fill="#000000" font-family="sans-serif" font-size="11" lengthAdjust="spacing" textLength="60" x="180" y="280.9268">birth : Data()</text><text fill="#000000" font-family="sans-serif" font-size="11" lengthAdjust="spacing" textLength="106" x="180" y="294.7627">timestamp : Datetime()</text><!--MD5=[e3f72718913f1e037c5bc72e44de49f6]
class client--><rect codeLine="15" fill="#FEFECE" filter="url(#f3szjc7w7xxfp)" height="89.5078" id="client" style="stroke:#A80036;stroke-width:1.5;" width="118" x="21" y="197.5"/><ellipse cx="61.65" cy="213.5" fill="#ADD1B2" rx="11" ry="11" style="stroke:#A80036;stroke-width:1.0;"/><path d="M64.3531,218.9375 Q63.4313,219.8594 61.1656,219.8594 Q59.9,219.8594 58.9781,218.9375 Q57.3219,217.2813 57.3219,213.75 Q57.3219,209.6406 59.1031,207.8438 Q60.0406,206.9219 61.2281,206.9219 Q63.4938,206.9219 64.2281,207.6406 Q65.6188,209.0469 65.5563,211.4375 L63.0875,211.4375 Q63.025,209.3125 62.2906,208.5781 Q61.9,208.1719 61.2281,208.1719 Q61.2281,208.1719 61.1656,208.6406 Q59.8375,209.9688 59.8375,213.625 Q59.8375,216.8125 60.9781,217.9375 Q61.5094,218.4688 61.5094,218.4688 Q61.7594,218.4688 62.2906,217.9375 Q62.9625,217.2813 63.025,214.8906 L65.6188,214.8906 Q65.4156,217.875 64.3531,218.9375 Z " fill="#000000"/><text fill="#000000" font-family="sans-serif" font-size="12" lengthAdjust="spacing" textLength="29" x="81.35" y="218.4102">client</text><line style="stroke:#A80036;stroke-width:1.5;" x1="22" x2="138" y1="229.5" y2="229.5"/><ellipse cx="32" cy="240.5" fill="#84BE84" rx="3" ry="3" style="stroke:#038048;stroke-width:1.0;"/><text fill="#000000" font-family="sans-serif" font-size="11" lengthAdjust="spacing" textLength="77" x="41" y="244.9189">uuid : String(32)</text><line style="stroke:#A80036;stroke-width:1.0;" x1="22" x2="138" y1="251.3359" y2="251.3359"/><text fill="#000000" font-family="sans-serif" font-size="11" lengthAdjust="spacing" textLength="80" x="27" y="266.7549">status : Boolen()</text><text fill="#000000" font-family="sans-serif" font-size="11" lengthAdjust="spacing" textLength="106" x="27" y="280.5908">timestamp : Datetime()</text><!--MD5=[fd1130adc2e6c8dd278ff904e2f06126]
class menta--><rect codeLine="27" fill="#FEFECE" filter="url(#f3szjc7w7xxfp)" height="117.1797" id="menta" style="stroke:#A80036;stroke-width:1.5;" width="118" x="327" y="184"/><ellipse cx="364.95" cy="200" fill="#ADD1B2" rx="11" ry="11" style="stroke:#A80036;stroke-width:1.0;"/><path d="M367.6531,205.4375 Q366.7313,206.3594 364.4656,206.3594 Q363.2,206.3594 362.2781,205.4375 Q360.6219,203.7813 360.6219,200.25 Q360.6219,196.1406 362.4031,194.3438 Q363.3406,193.4219 364.5281,193.4219 Q366.7938,193.4219 367.5281,194.1406 Q368.9188,195.5469 368.8563,197.9375 L366.3875,197.9375 Q366.325,195.8125 365.5906,195.0781 Q365.2,194.6719 364.5281,194.6719 Q364.5281,194.6719 364.4656,195.1406 Q363.1375,196.4688 363.1375,200.125 Q363.1375,203.3125 364.2781,204.4375 Q364.8094,204.9688 364.8094,204.9688 Q365.0594,204.9688 365.5906,204.4375 Q366.2625,203.7813 366.325,201.3906 L368.9188,201.3906 Q368.7156,204.375 367.6531,205.4375 Z " fill="#000000"/><text fill="#000000" font-family="sans-serif" font-size="12" lengthAdjust="spacing" textLength="35" x="384.05" y="204.9102">menta</text><line style="stroke:#A80036;stroke-width:1.5;" x1="328" x2="444" y1="216" y2="216"/><ellipse cx="338" cy="227" fill="#84BE84" rx="3" ry="3" style="stroke:#038048;stroke-width:1.0;"/><text fill="#000000" font-family="sans-serif" font-size="11" lengthAdjust="spacing" textLength="77" x="347" y="231.4189">uuid : String(32)</text><line style="stroke:#A80036;stroke-width:1.0;" x1="328" x2="444" y1="237.8359" y2="237.8359"/><text fill="#000000" font-family="sans-serif" font-size="11" lengthAdjust="spacing" textLength="99" x="333" y="253.2549">profile : String(1024)</text><text fill="#000000" font-family="sans-serif" font-size="11" lengthAdjust="spacing" textLength="75" x="333" y="267.0908">url : String(124)</text><text fill="#000000" font-family="sans-serif" font-size="11" lengthAdjust="spacing" textLength="80" x="333" y="280.9268">status : Boolen()</text><text fill="#000000" font-family="sans-serif" font-size="11" lengthAdjust="spacing" textLength="106" x="333" y="294.7627">timestamp : Datetime()</text><!--MD5=[ba05d8bf4f00d6c84b3b478bf3c7c054]
class review--><rect codeLine="46" fill="#FEFECE" filter="url(#f3szjc7w7xxfp)" height="131.0156" id="review" style="stroke:#A80036;stroke-width:1.5;" width="138" x="72" y="361"/><ellipse cx="119.25" cy="377" fill="#ADD1B2" rx="11" ry="11" style="stroke:#A80036;stroke-width:1.0;"/><path d="M121.9531,382.4375 Q121.0313,383.3594 118.7656,383.3594 Q117.5,383.3594 116.5781,382.4375 Q114.9219,380.7813 114.9219,377.25 Q114.9219,373.1406 116.7031,371.3438 Q117.6406,370.4219 118.8281,370.4219 Q121.0938,370.4219 121.8281,371.1406 Q123.2188,372.5469 123.1563,374.9375 L120.6875,374.9375 Q120.625,372.8125 119.8906,372.0781 Q119.5,371.6719 118.8281,371.6719 Q118.8281,371.6719 118.7656,372.1406 Q117.4375,373.4688 117.4375,377.125 Q117.4375,380.3125 118.5781,381.4375 Q119.1094,381.9688 119.1094,381.9688 Q119.3594,381.9688 119.8906,381.4375 Q120.5625,380.7813 120.625,378.3906 L123.2188,378.3906 Q123.0156,381.375 121.9531,382.4375 Z " fill="#000000"/><text fill="#000000" font-family="sans-serif" font-size="12" lengthAdjust="spacing" textLength="35" x="139.75" y="381.9102">review</text><line style="stroke:#A80036;stroke-width:1.5;" x1="73" x2="209" y1="393" y2="393"/><ellipse cx="83" cy="404" fill="#84BE84" rx="3" ry="3" style="stroke:#038048;stroke-width:1.0;"/><text fill="#000000" font-family="sans-serif" font-size="11" lengthAdjust="spacing" textLength="65" x="92" y="408.4189">id : String(32)</text><line style="stroke:#A80036;stroke-width:1.0;" x1="73" x2="209" y1="414.8359" y2="414.8359"/><polygon fill="#FFFF44" points="83,420.8359,87,424.8359,83,428.8359,79,424.8359" style="stroke:#B38D22;stroke-width:1.0;"/><text fill="#000000" font-family="sans-serif" font-size="11" lengthAdjust="spacing" textLength="100" x="92" y="430.2549">menta_id : String(32)</text><polygon fill="#FFFF44" points="83,434.6719,87,438.6719,83,442.6719,79,438.6719" style="stroke:#B38D22;stroke-width:1.0;"/><text fill="#000000" font-family="sans-serif" font-size="11" lengthAdjust="spacing" textLength="96" x="92" y="444.0908">client_id : String(32)</text><text fill="#000000" font-family="sans-serif" font-size="11" lengthAdjust="spacing" textLength="53" x="92" y="457.9268">star : Int(1)</text><text fill="#000000" font-family="sans-serif" font-size="11" lengthAdjust="spacing" textLength="112" x="92" y="471.7627">comment : String(1024)</text><text fill="#000000" font-family="sans-serif" font-size="11" lengthAdjust="spacing" textLength="106" x="92" y="485.5986">timestamp : Datetime()</text><!--MD5=[386483e524645920ec80042177357ab9]
class tag--><rect codeLine="56" fill="#FEFECE" filter="url(#f3szjc7w7xxfp)" height="89.5078" id="tag" style="stroke:#A80036;stroke-width:1.5;" width="118" x="247" y="552"/><ellipse cx="293.25" cy="568" fill="#ADD1B2" rx="11" ry="11" style="stroke:#A80036;stroke-width:1.0;"/><path d="M295.9531,573.4375 Q295.0313,574.3594 292.7656,574.3594 Q291.5,574.3594 290.5781,573.4375 Q288.9219,571.7813 288.9219,568.25 Q288.9219,564.1406 290.7031,562.3438 Q291.6406,561.4219 292.8281,561.4219 Q295.0938,561.4219 295.8281,562.1406 Q297.2188,563.5469 297.1563,565.9375 L294.6875,565.9375 Q294.625,563.8125 293.8906,563.0781 Q293.5,562.6719 292.8281,562.6719 Q292.8281,562.6719 292.7656,563.1406 Q291.4375,564.4688 291.4375,568.125 Q291.4375,571.3125 292.5781,572.4375 Q293.1094,572.9688 293.1094,572.9688 Q293.3594,572.9688 293.8906,572.4375 Q294.5625,571.7813 294.625,569.3906 L297.2188,569.3906 Q297.0156,572.375 295.9531,573.4375 Z " fill="#000000"/><text fill="#000000" font-family="sans-serif" font-size="12" lengthAdjust="spacing" textLength="17" x="313.75" y="572.9102">tag</text><line style="stroke:#A80036;stroke-width:1.5;" x1="248" x2="364" y1="584" y2="584"/><ellipse cx="258" cy="595" fill="#84BE84" rx="3" ry="3" style="stroke:#038048;stroke-width:1.0;"/><text fill="#000000" font-family="sans-serif" font-size="11" lengthAdjust="spacing" textLength="65" x="267" y="599.4189">id : String(32)</text><line style="stroke:#A80036;stroke-width:1.0;" x1="248" x2="364" y1="605.8359" y2="605.8359"/><text fill="#000000" font-family="sans-serif" font-size="11" lengthAdjust="spacing" textLength="83" x="253" y="621.2549">name : String(32)</text><text fill="#000000" font-family="sans-serif" font-size="11" lengthAdjust="spacing" textLength="106" x="253" y="635.0908">timestamp : Datetime()</text><!--MD5=[d7911f09136aed6ea6542adbda98b581]
class client_tag--><rect codeLine="66" fill="#FEFECE" filter="url(#f3szjc7w7xxfp)" height="103.3438" id="client_tag" style="stroke:#A80036;stroke-width:1.5;" width="132" x="9" y="702"/><ellipse cx="45.15" cy="718" fill="#ADD1B2" rx="11" ry="11" style="stroke:#A80036;stroke-width:1.0;"/><path d="M47.8531,723.4375 Q46.9313,724.3594 44.6656,724.3594 Q43.4,724.3594 42.4781,723.4375 Q40.8219,721.7813 40.8219,718.25 Q40.8219,714.1406 42.6031,712.3438 Q43.5406,711.4219 44.7281,711.4219 Q46.9938,711.4219 47.7281,712.1406 Q49.1188,713.5469 49.0563,715.9375 L46.5875,715.9375 Q46.525,713.8125 45.7906,713.0781 Q45.4,712.6719 44.7281,712.6719 Q44.7281,712.6719 44.6656,713.1406 Q43.3375,714.4688 43.3375,718.125 Q43.3375,721.3125 44.4781,722.4375 Q45.0094,722.9688 45.0094,722.9688 Q45.2594,722.9688 45.7906,722.4375 Q46.4625,721.7813 46.525,719.3906 L49.1188,719.3906 Q48.9156,722.375 47.8531,723.4375 Z " fill="#000000"/><text fill="#000000" font-family="sans-serif" font-size="12" lengthAdjust="spacing" textLength="53" x="63.85" y="722.9102">client_tag</text><line style="stroke:#A80036;stroke-width:1.5;" x1="10" x2="140" y1="734" y2="734"/><ellipse cx="20" cy="745" fill="#84BE84" rx="3" ry="3" style="stroke:#038048;stroke-width:1.0;"/><text fill="#000000" font-family="sans-serif" font-size="11" lengthAdjust="spacing" textLength="65" x="29" y="749.4189">id : String(32)</text><line style="stroke:#A80036;stroke-width:1.0;" x1="10" x2="140" y1="755.8359" y2="755.8359"/><polygon fill="#FFFF44" points="20,761.8359,24,765.8359,20,769.8359,16,765.8359" style="stroke:#B38D22;stroke-width:1.0;"/><text fill="#000000" font-family="sans-serif" font-size="11" lengthAdjust="spacing" textLength="96" x="29" y="771.2549">client_id : String(32)</text><polygon fill="#FFFF44" points="20,775.6719,24,779.6719,20,783.6719,16,779.6719" style="stroke:#B38D22;stroke-width:1.0;"/><text fill="#000000" font-family="sans-serif" font-size="11" lengthAdjust="spacing" textLength="86" x="29" y="785.0908">tag_id : String(32)</text><text fill="#000000" font-family="sans-serif" font-size="11" lengthAdjust="spacing" textLength="106" x="29" y="798.9268">timestamp : Datetime()</text><!--MD5=[2bc6c74f0d90f2903df4590535b405a7]
class menta_tag--><rect codeLine="77" fill="#FEFECE" filter="url(#f3szjc7w7xxfp)" height="117.1797" id="menta_tag" style="stroke:#A80036;stroke-width:1.5;" width="137" x="412.5" y="368"/><ellipse cx="448.2" cy="384" fill="#ADD1B2" rx="11" ry="11" style="stroke:#A80036;stroke-width:1.0;"/><path d="M450.9031,389.4375 Q449.9813,390.3594 447.7156,390.3594 Q446.45,390.3594 445.5281,389.4375 Q443.8719,387.7813 443.8719,384.25 Q443.8719,380.1406 445.6531,378.3438 Q446.5906,377.4219 447.7781,377.4219 Q450.0438,377.4219 450.7781,378.1406 Q452.1688,379.5469 452.1063,381.9375 L449.6375,381.9375 Q449.575,379.8125 448.8406,379.0781 Q448.45,378.6719 447.7781,378.6719 Q447.7781,378.6719 447.7156,379.1406 Q446.3875,380.4688 446.3875,384.125 Q446.3875,387.3125 447.5281,388.4375 Q448.0594,388.9688 448.0594,388.9688 Q448.3094,388.9688 448.8406,388.4375 Q449.5125,387.7813 449.575,385.3906 L452.1688,385.3906 Q451.9656,388.375 450.9031,389.4375 Z " fill="#000000"/><text fill="#000000" font-family="sans-serif" font-size="12" lengthAdjust="spacing" textLength="59" x="466.8" y="388.9102">menta_tag</text><line style="stroke:#A80036;stroke-width:1.5;" x1="413.5" x2="548.5" y1="400" y2="400"/><ellipse cx="423.5" cy="411" fill="#84BE84" rx="3" ry="3" style="stroke:#038048;stroke-width:1.0;"/><text fill="#000000" font-family="sans-serif" font-size="11" lengthAdjust="spacing" textLength="65" x="432.5" y="415.4189">id : String(32)</text><line style="stroke:#A80036;stroke-width:1.0;" x1="413.5" x2="548.5" y1="421.8359" y2="421.8359"/><polygon fill="#FFFF44" points="423.5,427.8359,427.5,431.8359,423.5,435.8359,419.5,431.8359" style="stroke:#B38D22;stroke-width:1.0;"/><text fill="#000000" font-family="sans-serif" font-size="11" lengthAdjust="spacing" textLength="100" x="432.5" y="437.2549">menta_id : String(32)</text><polygon fill="#FFFF44" points="423.5,441.6719,427.5,445.6719,423.5,449.6719,419.5,445.6719" style="stroke:#B38D22;stroke-width:1.0;"/><text fill="#000000" font-family="sans-serif" font-size="11" lengthAdjust="spacing" textLength="86" x="432.5" y="451.0908">tag_id : String(32)</text><text fill="#000000" font-family="sans-serif" font-size="11" lengthAdjust="spacing" textLength="111" x="432.5" y="464.9268">experience : String(32)</text><text fill="#000000" font-family="sans-serif" font-size="11" lengthAdjust="spacing" textLength="106" x="432.5" y="478.7627">timestamp : Datetime()</text><!--MD5=[95b683c1b1f07077491d9b9a1eb4d251]
class like--><rect codeLine="86" fill="#FEFECE" filter="url(#f3szjc7w7xxfp)" height="117.1797" id="like" style="stroke:#A80036;stroke-width:1.5;" width="132" x="245" y="368"/><ellipse cx="297.25" cy="384" fill="#ADD1B2" rx="11" ry="11" style="stroke:#A80036;stroke-width:1.0;"/><path d="M299.9531,389.4375 Q299.0313,390.3594 296.7656,390.3594 Q295.5,390.3594 294.5781,389.4375 Q292.9219,387.7813 292.9219,384.25 Q292.9219,380.1406 294.7031,378.3438 Q295.6406,377.4219 296.8281,377.4219 Q299.0938,377.4219 299.8281,378.1406 Q301.2188,379.5469 301.1563,381.9375 L298.6875,381.9375 Q298.625,379.8125 297.8906,379.0781 Q297.5,378.6719 296.8281,378.6719 Q296.8281,378.6719 296.7656,379.1406 Q295.4375,380.4688 295.4375,384.125 Q295.4375,387.3125 296.5781,388.4375 Q297.1094,388.9688 297.1094,388.9688 Q297.3594,388.9688 297.8906,388.4375 Q298.5625,387.7813 298.625,385.3906 L301.2188,385.3906 Q301.0156,388.375 299.9531,389.4375 Z " fill="#000000"/><text fill="#000000" font-family="sans-serif" font-size="12" lengthAdjust="spacing" textLength="19" x="317.75" y="388.9102">like</text><line style="stroke:#A80036;stroke-width:1.5;" x1="246" x2="376" y1="400" y2="400"/><ellipse cx="256" cy="411" fill="#84BE84" rx="3" ry="3" style="stroke:#038048;stroke-width:1.0;"/><text fill="#000000" font-family="sans-serif" font-size="11" lengthAdjust="spacing" textLength="65" x="265" y="415.4189">id : String(32)</text><line style="stroke:#A80036;stroke-width:1.0;" x1="246" x2="376" y1="421.8359" y2="421.8359"/><polygon fill="#FFFF44" points="256,427.8359,260,431.8359,256,435.8359,252,431.8359" style="stroke:#B38D22;stroke-width:1.0;"/><text fill="#000000" font-family="sans-serif" font-size="11" lengthAdjust="spacing" textLength="100" x="265" y="437.2549">menta_id : String(32)</text><polygon fill="#FFFF44" points="256,441.6719,260,445.6719,256,449.6719,252,445.6719" style="stroke:#B38D22;stroke-width:1.0;"/><text fill="#000000" font-family="sans-serif" font-size="11" lengthAdjust="spacing" textLength="96" x="265" y="451.0908">client_id : String(32)</text><text fill="#000000" font-family="sans-serif" font-size="11" lengthAdjust="spacing" textLength="74" x="265" y="464.9268">status : Bool(1)</text><text fill="#000000" font-family="sans-serif" font-size="11" lengthAdjust="spacing" textLength="106" x="265" y="478.7627">timestamp : Datetime()</text><!--MD5=[5c19f40aa9512e90106447142f5d7dc3]
class contract--><rect codeLine="102" fill="#FEFECE" filter="url(#f3szjc7w7xxfp)" height="103.3438" id="contract" style="stroke:#A80036;stroke-width:1.5;" width="132" x="83" y="14"/><ellipse cx="123.65" cy="30" fill="#ADD1B2" rx="11" ry="11" style="stroke:#A80036;stroke-width:1.0;"/><path d="M126.3531,35.4375 Q125.4313,36.3594 123.1656,36.3594 Q121.9,36.3594 120.9781,35.4375 Q119.3219,33.7813 119.3219,30.25 Q119.3219,26.1406 121.1031,24.3438 Q122.0406,23.4219 123.2281,23.4219 Q125.4938,23.4219 126.2281,24.1406 Q127.6188,25.5469 127.5563,27.9375 L125.0875,27.9375 Q125.025,25.8125 124.2906,25.0781 Q123.9,24.6719 123.2281,24.6719 Q123.2281,24.6719 123.1656,25.1406 Q121.8375,26.4688 121.8375,30.125 Q121.8375,33.3125 122.9781,34.4375 Q123.5094,34.9688 123.5094,34.9688 Q123.7594,34.9688 124.2906,34.4375 Q124.9625,33.7813 125.025,31.3906 L127.6188,31.3906 Q127.4156,34.375 126.3531,35.4375 Z " fill="#000000"/><text fill="#000000" font-family="sans-serif" font-size="12" lengthAdjust="spacing" textLength="43" x="143.35" y="34.9102">contract</text><line style="stroke:#A80036;stroke-width:1.5;" x1="84" x2="214" y1="46" y2="46"/><ellipse cx="94" cy="57" fill="#84BE84" rx="3" ry="3" style="stroke:#038048;stroke-width:1.0;"/><text fill="#000000" font-family="sans-serif" font-size="11" lengthAdjust="spacing" textLength="62" x="103" y="61.4189">id :String(32)</text><line style="stroke:#A80036;stroke-width:1.0;" x1="84" x2="214" y1="67.8359" y2="67.8359"/><polygon fill="#FFFF44" points="94,73.8359,98,77.8359,94,81.8359,90,77.8359" style="stroke:#B38D22;stroke-width:1.0;"/><text fill="#000000" font-family="sans-serif" font-size="11" lengthAdjust="spacing" textLength="97" x="103" y="83.2549">menta_id: String(32)</text><polygon fill="#FFFF44" points="94,87.6719,98,91.6719,94,95.6719,90,91.6719" style="stroke:#B38D22;stroke-width:1.0;"/><text fill="#000000" font-family="sans-serif" font-size="11" lengthAdjust="spacing" textLength="93" x="103" y="97.0908">client_id: String(32)</text><text fill="#000000" font-family="sans-serif" font-size="11" lengthAdjust="spacing" textLength="106" x="103" y="110.9268">timestamp : Datetime()</text><!--MD5=[61b79dafd5b2738e8529a55c83a16b82]
class none--><rect codeLine="113" fill="#FEFECE" filter="url(#f3szjc7w7xxfp)" height="117.1797" id="none" style="stroke:#A80036;stroke-width:1.5;" width="132" x="285" y="7"/><ellipse cx="332.75" cy="23" fill="#ADD1B2" rx="11" ry="11" style="stroke:#A80036;stroke-width:1.0;"/><path d="M335.4531,28.4375 Q334.5313,29.3594 332.2656,29.3594 Q331,29.3594 330.0781,28.4375 Q328.4219,26.7813 328.4219,23.25 Q328.4219,19.1406 330.2031,17.3438 Q331.1406,16.4219 332.3281,16.4219 Q334.5938,16.4219 335.3281,17.1406 Q336.7188,18.5469 336.6563,20.9375 L334.1875,20.9375 Q334.125,18.8125 333.3906,18.0781 Q333,17.6719 332.3281,17.6719 Q332.3281,17.6719 332.2656,18.1406 Q330.9375,19.4688 330.9375,23.125 Q330.9375,26.3125 332.0781,27.4375 Q332.6094,27.9688 332.6094,27.9688 Q332.8594,27.9688 333.3906,27.4375 Q334.0625,26.7813 334.125,24.3906 L336.7188,24.3906 Q336.5156,27.375 335.4531,28.4375 Z " fill="#000000"/><text fill="#000000" font-family="sans-serif" font-size="12" lengthAdjust="spacing" textLength="28" x="353.25" y="27.9102">none</text><line style="stroke:#A80036;stroke-width:1.5;" x1="286" x2="416" y1="39" y2="39"/><ellipse cx="296" cy="50" fill="#84BE84" rx="3" ry="3" style="stroke:#038048;stroke-width:1.0;"/><text fill="#000000" font-family="sans-serif" font-size="11" lengthAdjust="spacing" textLength="65" x="305" y="54.4189">id : String(32)</text><line style="stroke:#A80036;stroke-width:1.0;" x1="286" x2="416" y1="60.8359" y2="60.8359"/><polygon fill="#FFFF44" points="296,66.8359,300,70.8359,296,74.8359,292,70.8359" style="stroke:#B38D22;stroke-width:1.0;"/><text fill="#000000" font-family="sans-serif" font-size="11" lengthAdjust="spacing" textLength="100" x="305" y="76.2549">menta_id : String(32)</text><polygon fill="#FFFF44" points="296,80.6719,300,84.6719,296,88.6719,292,84.6719" style="stroke:#B38D22;stroke-width:1.0;"/><text fill="#000000" font-family="sans-serif" font-size="11" lengthAdjust="spacing" textLength="96" x="305" y="90.0908">client_id : String(32)</text><text fill="#000000" font-family="sans-serif" font-size="11" lengthAdjust="spacing" textLength="60" x="305" y="103.9268">date : Date()</text><text fill="#000000" font-family="sans-serif" font-size="11" lengthAdjust="spacing" textLength="106" x="305" y="117.7627">timestamp : Datetime()</text><!--MD5=[3f8dfa06881e5c63ecc48caee1f8c23e]
link client to users--><path codeLine="134" d="M139.17,242.5 C150.77,242.5 162.38,242.5 173.99,242.5 " fill="none" id="client-users" style="stroke:#A80036;stroke-width:1.0;"/><!--MD5=[03e818f0ac14b65b45132e236d4503e7]
link users to menta--><path codeLine="135" d="M292.17,242.5 C303.77,242.5 315.38,242.5 326.99,242.5 " fill="none" id="users-menta" style="stroke:#A80036;stroke-width:1.0;"/><!--MD5=[c6e7ba2a414f6130840e0f510acaf3ee]
link client to like--><path codeLine="136" d="M135.92,287.56 C166.71,311.82 205.29,342.21 238.39,368.29 " fill="none" id="client-to-like" style="stroke:#A80036;stroke-width:1.0;"/><line style="stroke:#A80036;stroke-width:1.0;" x1="238.6484" x2="244.93" y1="368.4961" y2="367.1684"/><line style="stroke:#A80036;stroke-width:1.0;" x1="238.6484" x2="244.93" y1="368.4961" y2="379.7316"/><line style="stroke:#A80036;stroke-width:1.0;" x1="238.6484" x2="244.93" y1="368.4961" y2="373.45"/><!--MD5=[4b4f66a22fdf7e2a600f5c799ca0290c]
link menta to like--><path codeLine="137" d="M362.27,301.09 C354.5,319.93 345.82,341 337.84,360.36 " fill="none" id="menta-to-like" style="stroke:#A80036;stroke-width:1.0;"/><line style="stroke:#A80036;stroke-width:1.0;" x1="337.7546" x2="342.0939" y1="360.5861" y2="367.98"/><line style="stroke:#A80036;stroke-width:1.0;" x1="337.7546" x2="327.3061" y1="360.5861" y2="367.98"/><line style="stroke:#A80036;stroke-width:1.0;" x1="337.7546" x2="334.7" y1="360.5861" y2="367.98"/><!--MD5=[096c45a37040f0bc59af758e8dc0084d]
link contract to client--><path codeLine="138" d="M129.04,117.12 C120.07,139.88 109.48,166.72 100.45,189.63 " fill="none" id="contract-to-client" style="stroke:#A80036;stroke-width:1.0;"/><line style="stroke:#A80036;stroke-width:1.0;" x1="100.3792" x2="104.8944" y1="189.7956" y2="197.24"/><line style="stroke:#A80036;stroke-width:1.0;" x1="100.3792" x2="90.0056" y1="189.7956" y2="197.24"/><line style="stroke:#A80036;stroke-width:1.0;" x1="100.3792" x2="97.45" y1="189.7956" y2="197.24"/><!--MD5=[336ad18a4fc2ffa923cb1868d194f95e]
link contract to menta--><path codeLine="139" d="M215.38,114.55 C244.5,135.73 279.03,160.99 310,184 C313.32,186.47 316.71,189 320.14,191.56 " fill="none" id="contract-to-menta" style="stroke:#A80036;stroke-width:1.0;"/><line style="stroke:#A80036;stroke-width:1.0;" x1="320.3449" x2="326.75" y1="191.7169" y2="190.1049"/><line style="stroke:#A80036;stroke-width:1.0;" x1="320.3449" x2="326.75" y1="191.7169" y2="202.9151"/><line style="stroke:#A80036;stroke-width:1.0;" x1="320.3449" x2="326.75" y1="191.7169" y2="196.51"/><!--MD5=[ce606ef64e3f7cf2948bb849aa1afd20]
reverse link none to client--><path codeLine="140" d="M277.63,108.24 C240.58,129.94 195.28,157.41 156,184 C149.83,188.17 143.49,192.66 137.21,197.21 " fill="none" id="none-backto-client" style="stroke:#A80036;stroke-width:1.0;"/><line style="stroke:#A80036;stroke-width:1.0;" x1="278.0176" x2="284.92" y1="108.0243" y2="97.0776"/><line style="stroke:#A80036;stroke-width:1.0;" x1="278.0176" x2="284.92" y1="108.0243" y2="110.8824"/><line style="stroke:#A80036;stroke-width:1.0;" x1="278.0176" x2="284.92" y1="108.0243" y2="103.98"/><!--MD5=[bb9d41c3d3ff7bc48b73c642d9b053e5]
link none to menta--><path codeLine="141" d="M362.56,124.29 C365.84,140.71 369.45,158.73 372.82,175.6 " fill="none" id="none-to-menta" style="stroke:#A80036;stroke-width:1.0;"/><line style="stroke:#A80036;stroke-width:1.0;" x1="372.8783" x2="382.2941" y1="175.9259" y2="183.77"/><line style="stroke:#A80036;stroke-width:1.0;" x1="372.8783" x2="366.6059" y1="175.9259" y2="183.77"/><line style="stroke:#A80036;stroke-width:1.0;" x1="372.8783" x2="374.45" y1="175.9259" y2="183.77"/><!--MD5=[a22e4fb2c2d0e68b1aed536373d6f473]
link tag to client_tag--><path codeLine="142" d="M246.81,637.59 C216.74,657.7 179.91,682.33 148.08,703.62 " fill="none" id="tag-to-client_tag" style="stroke:#A80036;stroke-width:1.0;"/><line style="stroke:#A80036;stroke-width:1.0;" x1="148.0176" x2="141.37" y1="703.6592" y2="714.7576"/><line style="stroke:#A80036;stroke-width:1.0;" x1="148.0176" x2="141.37" y1="703.6592" y2="701.4624"/><line style="stroke:#A80036;stroke-width:1.0;" x1="148.0176" x2="141.37" y1="703.6592" y2="708.11"/><!--MD5=[920d0215737600301cd2af09d49a3ca3]
reverse link menta_tag to tag--><path codeLine="143" d="M415.36,490.7 C394.25,511.03 371.32,533.11 351.93,551.77 " fill="none" id="menta_tag-backto-tag" style="stroke:#A80036;stroke-width:1.0;"/><line style="stroke:#A80036;stroke-width:1.0;" x1="415.4969" x2="415.7114" y1="490.5686" y2="485.02"/><line style="stroke:#A80036;stroke-width:1.0;" x1="415.4969" x2="426.8086" y1="490.5686" y2="485.02"/><line style="stroke:#A80036;stroke-width:1.0;" x1="415.4969" x2="421.26" y1="490.5686" y2="485.02"/><!--MD5=[7e852d3902acfcb2212851a0a217ff1a]
link client to client_tag--><path codeLine="144" d="M67.82,287.76 C62.41,309.61 56.68,336.49 54,361 C41.14,478.68 55.44,617.15 65.94,693.85 " fill="none" id="client-to-client_tag" style="stroke:#A80036;stroke-width:1.0;"/><line style="stroke:#A80036;stroke-width:1.0;" x1="65.9687" x2="74.9938" y1="694.0662" y2="701.99"/><line style="stroke:#A80036;stroke-width:1.0;" x1="65.9687" x2="59.1462" y1="694.0662" y2="701.99"/><line style="stroke:#A80036;stroke-width:1.0;" x1="65.9687" x2="67.07" y1="694.0662" y2="701.99"/><!--MD5=[f0a42e61a63e6e0bb25c2d0526302b52]
link menta to menta_tag--><path codeLine="145" d="M416.06,301.09 C425.98,320.1 437.09,341.37 447.27,360.88 " fill="none" id="menta-to-menta_tag" style="stroke:#A80036;stroke-width:1.0;"/><line style="stroke:#A80036;stroke-width:1.0;" x1="447.267" x2="458.0614" y1="360.8886" y2="367.98"/><line style="stroke:#A80036;stroke-width:1.0;" x1="447.267" x2="443.8786" y1="360.8886" y2="367.98"/><line style="stroke:#A80036;stroke-width:1.0;" x1="447.267" x2="450.97" y1="360.8886" y2="367.98"/><!--MD5=[0304de5560c68b2f43d9628c9ad9737a]
reverse link client to review--><path codeLine="146" d="M97.33,295.21 C104.18,315.63 112.11,339.32 119.33,360.85 " fill="none" id="client-backto-review" style="stroke:#A80036;stroke-width:1.0;"/><line style="stroke:#A80036;stroke-width:1.0;" x1="97.3127" x2="87.1848" y1="295.1452" y2="287.56"/><line style="stroke:#A80036;stroke-width:1.0;" x1="97.3127" x2="102.3552" y1="295.1452" y2="287.56"/><line style="stroke:#A80036;stroke-width:1.0;" x1="97.3127" x2="94.77" y1="295.1452" y2="287.56"/><!--MD5=[840f0d10f39b608aed886aeb34cebefb]
link menta to review--><path codeLine="147" d="M326.74,288.48 C321.09,292.72 315.44,296.95 310,301 C273.77,327.96 264.36,334.22 228,361 C224.4,363.65 220.73,366.36 217.01,369.1 " fill="none" id="menta-to-review" style="stroke:#A80036;stroke-width:1.0;"/><line style="stroke:#A80036;stroke-width:1.0;" x1="216.7358" x2="210.3" y1="369.3081" y2="380.4958"/><line style="stroke:#A80036;stroke-width:1.0;" x1="216.7358" x2="210.3" y1="369.3081" y2="367.6242"/><line style="stroke:#A80036;stroke-width:1.0;" x1="216.7358" x2="210.3" y1="369.3081" y2="374.06"/><!--MD5=[166d6da1d2c805a10d68d742a87cabcc]
@startuml ER

class users {
    + uuid : String(32)
    - - -
    name : String(64)
    mail : String(240)
    birth : Data()
    timestamp : Datetime()
}
/'
    全ユーザー
    birth: 誕生日
'/

class client {
    + uuid : String(32)
    - - -
    status : Boolen()
    timestamp : Datetime()
}
/'
    クライアント
    status: 有効状態
    false or true
'/

class menta {
    + uuid : String(32)
    - - -
    profile : String(1024)
    url : String(124)
    status : Boolen()
    timestamp : Datetime()
}
/'
    メンター

    profile: ポートフォリオ
    url:  youtube url
    status: 有効状態
    
    終了条件をプロフィールに明示する
    完了せずに契約終了した場合返金処理
'/

class review {
    + id : String(32)
    - - -
    # menta_id : String(32)
    # client_id : String(32)
    star : Int(1)
    comment : String(1024)
    timestamp : Datetime()
}

class tag {
    + id : String(32)
    - - -
    name : String(32)
    timestamp : Datetime()
}
/'
    分野
'/

class client_tag {
    + id : String(32)
    - - -
    # client_id : String(32)
    # tag_id : String(32)
    timestamp : Datetime()
}
/'
    clientとタグの関連付け
'/  

class menta_tag {
    + id : String(32)
    - - -
    # menta_id : String(32)
    # tag_id : String(32)
    experience : String(32)
    timestamp : Datetime()
}

class like {
    ' 契約前
    + id : String(32)
    - - -
    # menta_id : String(32)
    # client_id : String(32)
    status : Bool(1)
    timestamp : Datetime()
}
/'
    契約前
    menta_id: サービス提供者
    client_id: 依頼者
    status: 1で有効0で無効
'/

class contract {
    + id :String(32)
    - - -
    # menta_id: String(32)
    # client_id: String(32)
    timestamp : Datetime()
}
/'
    契約済み
'/

class none {
    + id : String(32)
    - - -
    # menta_id : String(32)
    # client_id : String(32)
    date : Date()
    timestamp : Datetime()
}
/'
    noneされた人
    一か月表示しない
'/

' class creditcard {
'     # client_id : String(32)
'     number : String(32)
'     name : String(128)
'     limit : String(16)
'     code : String(4)
' }

client - users
users - menta
client - -{ like
menta - -{ like
contract - -{ client
contract - -{ menta
none }- - client
none - -{ menta
tag - -{ client_tag
menta_tag }- - tag
client -{ client_tag
menta - -{ menta_tag
client }- - review 
menta - -{ review
' creditcard }- - client
@enduml

@startuml ER

class users {
    + uuid : String(32)
    - - -
    name : String(64)
    mail : String(240)
    birth : Data()
    timestamp : Datetime()
}

class client {
    + uuid : String(32)
    - - -
    status : Boolen()
    timestamp : Datetime()
}

class menta {
    + uuid : String(32)
    - - -
    profile : String(1024)
    url : String(124)
    status : Boolen()
    timestamp : Datetime()
}

class review {
    + id : String(32)
    - - -
    # menta_id : String(32)
    # client_id : String(32)
    star : Int(1)
    comment : String(1024)
    timestamp : Datetime()
}

class tag {
    + id : String(32)
    - - -
    name : String(32)
    timestamp : Datetime()
}

class client_tag {
    + id : String(32)
    - - -
    # client_id : String(32)
    # tag_id : String(32)
    timestamp : Datetime()
}

class menta_tag {
    + id : String(32)
    - - -
    # menta_id : String(32)
    # tag_id : String(32)
    experience : String(32)
    timestamp : Datetime()
}

class like {
    + id : String(32)
    - - -
    # menta_id : String(32)
    # client_id : String(32)
    status : Bool(1)
    timestamp : Datetime()
}

class contract {
    + id :String(32)
    - - -
    # menta_id: String(32)
    # client_id: String(32)
    timestamp : Datetime()
}

class none {
    + id : String(32)
    - - -
    # menta_id : String(32)
    # client_id : String(32)
    date : Date()
    timestamp : Datetime()
}


client - users
users - menta
client - -{ like
menta - -{ like
contract - -{ client
contract - -{ menta
none }- - client
none - -{ menta
tag - -{ client_tag
menta_tag }- - tag
client -{ client_tag
menta - -{ menta_tag
client }- - review 
menta - -{ review
@enduml

PlantUML version 1.2022.0(Wed Jan 12 01:16:42 JST 2022)
(GPL source distribution)
Java Runtime: Java(TM) SE Runtime Environment
JVM: Java HotSpot(TM) 64-Bit Server VM
Default Encoding: MS932
Language: ja
Country: JP
--></g></svg>