<?xml version="1.0" encoding="UTF-8" standalone="no"?><svg xmlns="http://www.w3.org/2000/svg" xmlns:xlink="http://www.w3.org/1999/xlink" contentScriptType="application/ecmascript" contentStyleType="text/css" height="875px" preserveAspectRatio="none" style="width:647px;height:875px;background:#FFFFFF;" version="1.1" viewBox="0 0 647 875" width="647px" zoomAndPan="magnify"><defs><filter height="300%" id="fqx8awaxg8nst" width="300%" x="-1" y="-1"><feGaussianBlur result="blurOut" stdDeviation="2.0"/><feColorMatrix in="blurOut" result="blurOut2" type="matrix" values="0 0 0 0 0 0 0 0 0 0 0 0 0 0 0 0 0 0 .4 0"/><feOffset dx="4.0" dy="4.0" in="blurOut2" result="blurOut3"/><feBlend in="SourceGraphic" in2="blurOut3" mode="normal"/></filter></defs><g><!--MD5=[8413f8248b2da7966d2de021109ec289]
class users--><rect codeLine="2" fill="#FEFECE" filter="url(#fqx8awaxg8nst)" height="144.8516" id="users" style="stroke:#A80036;stroke-width:1.5;" width="118" x="170.5" y="198"/><ellipse cx="209.8" cy="214" fill="#ADD1B2" rx="11" ry="11" style="stroke:#A80036;stroke-width:1.0;"/><path d="M212.5031,219.4375 Q211.5813,220.3594 209.3156,220.3594 Q208.05,220.3594 207.1281,219.4375 Q205.4719,217.7813 205.4719,214.25 Q205.4719,210.1406 207.2531,208.3438 Q208.1906,207.4219 209.3781,207.4219 Q211.6438,207.4219 212.3781,208.1406 Q213.7688,209.5469 213.7063,211.9375 L211.2375,211.9375 Q211.175,209.8125 210.4406,209.0781 Q210.05,208.6719 209.3781,208.6719 Q209.3781,208.6719 209.3156,209.1406 Q207.9875,210.4688 207.9875,214.125 Q207.9875,217.3125 209.1281,218.4375 Q209.6594,218.9688 209.6594,218.9688 Q209.9094,218.9688 210.4406,218.4375 Q211.1125,217.7813 211.175,215.3906 L213.7688,215.3906 Q213.5656,218.375 212.5031,219.4375 Z " fill="#000000"/><text fill="#000000" font-family="sans-serif" font-size="12" lengthAdjust="spacing" textLength="32" x="229.2" y="218.9102">users</text><line style="stroke:#A80036;stroke-width:1.5;" x1="171.5" x2="287.5" y1="230" y2="230"/><ellipse cx="181.5" cy="241" fill="#84BE84" rx="3" ry="3" style="stroke:#038048;stroke-width:1.0;"/><text fill="#000000" font-family="sans-serif" font-size="11" lengthAdjust="spacing" textLength="65" x="190.5" y="245.4189">id : String(32)</text><line style="stroke:#A80036;stroke-width:1.0;" x1="171.5" x2="287.5" y1="251.8359" y2="251.8359"/><text fill="#000000" font-family="sans-serif" font-size="11" lengthAdjust="spacing" textLength="77" x="176.5" y="267.2549">uuid : String(32)</text><text fill="#000000" font-family="sans-serif" font-size="11" lengthAdjust="spacing" textLength="83" x="176.5" y="281.0908">name : String(64)</text><text fill="#000000" font-family="sans-serif" font-size="11" lengthAdjust="spacing" textLength="81" x="176.5" y="294.9268">mail : String(240)</text><text fill="#000000" font-family="sans-serif" font-size="11" lengthAdjust="spacing" textLength="57" x="176.5" y="308.7627">birth: Date()</text><text fill="#000000" font-family="sans-serif" font-size="11" lengthAdjust="spacing" textLength="106" x="176.5" y="322.5986">timestamp : Datetime()</text><text fill="#000000" font-family="sans-serif" font-size="11" lengthAdjust="spacing" textLength="80" x="176.5" y="336.4346">status : Boolen()</text><!--MD5=[fd1130adc2e6c8dd278ff904e2f06126]
class menta--><rect codeLine="19" fill="#FEFECE" filter="url(#fqx8awaxg8nst)" height="172.5234" id="menta" style="stroke:#A80036;stroke-width:1.5;" width="118" x="327.5" y="184"/><ellipse cx="365.45" cy="200" fill="#ADD1B2" rx="11" ry="11" style="stroke:#A80036;stroke-width:1.0;"/><path d="M368.1531,205.4375 Q367.2313,206.3594 364.9656,206.3594 Q363.7,206.3594 362.7781,205.4375 Q361.1219,203.7813 361.1219,200.25 Q361.1219,196.1406 362.9031,194.3438 Q363.8406,193.4219 365.0281,193.4219 Q367.2938,193.4219 368.0281,194.1406 Q369.4188,195.5469 369.3563,197.9375 L366.8875,197.9375 Q366.825,195.8125 366.0906,195.0781 Q365.7,194.6719 365.0281,194.6719 Q365.0281,194.6719 364.9656,195.1406 Q363.6375,196.4688 363.6375,200.125 Q363.6375,203.3125 364.7781,204.4375 Q365.3094,204.9688 365.3094,204.9688 Q365.5594,204.9688 366.0906,204.4375 Q366.7625,203.7813 366.825,201.3906 L369.4188,201.3906 Q369.2156,204.375 368.1531,205.4375 Z " fill="#000000"/><text fill="#000000" font-family="sans-serif" font-size="12" lengthAdjust="spacing" textLength="35" x="384.55" y="204.9102">menta</text><line style="stroke:#A80036;stroke-width:1.5;" x1="328.5" x2="444.5" y1="216" y2="216"/><ellipse cx="338.5" cy="227" fill="#84BE84" rx="3" ry="3" style="stroke:#038048;stroke-width:1.0;"/><text fill="#000000" font-family="sans-serif" font-size="11" lengthAdjust="spacing" textLength="65" x="347.5" y="231.4189">id : String(32)</text><line style="stroke:#A80036;stroke-width:1.0;" x1="328.5" x2="444.5" y1="237.8359" y2="237.8359"/><text fill="#000000" font-family="sans-serif" font-size="11" lengthAdjust="spacing" textLength="77" x="333.5" y="253.2549">uuid : String(32)</text><text fill="#000000" font-family="sans-serif" font-size="11" lengthAdjust="spacing" textLength="83" x="333.5" y="267.0908">name : String(64)</text><text fill="#000000" font-family="sans-serif" font-size="11" lengthAdjust="spacing" textLength="81" x="333.5" y="280.9268">mail : String(240)</text><text fill="#000000" font-family="sans-serif" font-size="11" lengthAdjust="spacing" textLength="60" x="333.5" y="294.7627">birth : Date()</text><text fill="#000000" font-family="sans-serif" font-size="11" lengthAdjust="spacing" textLength="99" x="333.5" y="308.5986">profile : String(1024)</text><text fill="#000000" font-family="sans-serif" font-size="11" lengthAdjust="spacing" textLength="75" x="333.5" y="322.4346">url : String(124)</text><text fill="#000000" font-family="sans-serif" font-size="11" lengthAdjust="spacing" textLength="106" x="333.5" y="336.2705">timestamp : Datetime()</text><text fill="#000000" font-family="sans-serif" font-size="11" lengthAdjust="spacing" textLength="80" x="333.5" y="350.1064">status : Boolen()</text><!--MD5=[ba05d8bf4f00d6c84b3b478bf3c7c054]
class review--><rect codeLine="42" fill="#FEFECE" filter="url(#fqx8awaxg8nst)" height="131.0156" id="review" style="stroke:#A80036;stroke-width:1.5;" width="138" x="322.5" y="417"/><ellipse cx="369.75" cy="433" fill="#ADD1B2" rx="11" ry="11" style="stroke:#A80036;stroke-width:1.0;"/><path d="M372.4531,438.4375 Q371.5313,439.3594 369.2656,439.3594 Q368,439.3594 367.0781,438.4375 Q365.4219,436.7813 365.4219,433.25 Q365.4219,429.1406 367.2031,427.3438 Q368.1406,426.4219 369.3281,426.4219 Q371.5938,426.4219 372.3281,427.1406 Q373.7188,428.5469 373.6563,430.9375 L371.1875,430.9375 Q371.125,428.8125 370.3906,428.0781 Q370,427.6719 369.3281,427.6719 Q369.3281,427.6719 369.2656,428.1406 Q367.9375,429.4688 367.9375,433.125 Q367.9375,436.3125 369.0781,437.4375 Q369.6094,437.9688 369.6094,437.9688 Q369.8594,437.9688 370.3906,437.4375 Q371.0625,436.7813 371.125,434.3906 L373.7188,434.3906 Q373.5156,437.375 372.4531,438.4375 Z " fill="#000000"/><text fill="#000000" font-family="sans-serif" font-size="12" lengthAdjust="spacing" textLength="35" x="390.25" y="437.9102">review</text><line style="stroke:#A80036;stroke-width:1.5;" x1="323.5" x2="459.5" y1="449" y2="449"/><ellipse cx="333.5" cy="460" fill="#84BE84" rx="3" ry="3" style="stroke:#038048;stroke-width:1.0;"/><text fill="#000000" font-family="sans-serif" font-size="11" lengthAdjust="spacing" textLength="65" x="342.5" y="464.4189">id : String(32)</text><line style="stroke:#A80036;stroke-width:1.0;" x1="323.5" x2="459.5" y1="470.8359" y2="470.8359"/><polygon fill="#FFFF44" points="333.5,476.8359,337.5,480.8359,333.5,484.8359,329.5,480.8359" style="stroke:#B38D22;stroke-width:1.0;"/><text fill="#000000" font-family="sans-serif" font-size="11" lengthAdjust="spacing" textLength="100" x="342.5" y="486.2549">menta_id : String(32)</text><polygon fill="#FFFF44" points="333.5,490.6719,337.5,494.6719,333.5,498.6719,329.5,494.6719" style="stroke:#B38D22;stroke-width:1.0;"/><text fill="#000000" font-family="sans-serif" font-size="11" lengthAdjust="spacing" textLength="93" x="342.5" y="500.0908">user_id : String(32)</text><text fill="#000000" font-family="sans-serif" font-size="11" lengthAdjust="spacing" textLength="53" x="342.5" y="513.9268">star : Int(1)</text><text fill="#000000" font-family="sans-serif" font-size="11" lengthAdjust="spacing" textLength="112" x="342.5" y="527.7627">comment : String(1024)</text><text fill="#000000" font-family="sans-serif" font-size="11" lengthAdjust="spacing" textLength="106" x="342.5" y="541.5986">timestamp : Datetime()</text><!--MD5=[386483e524645920ec80042177357ab9]
class tag--><rect codeLine="52" fill="#FEFECE" filter="url(#fqx8awaxg8nst)" height="89.5078" id="tag" style="stroke:#A80036;stroke-width:1.5;" width="118" x="330.5" y="608"/><ellipse cx="376.75" cy="624" fill="#ADD1B2" rx="11" ry="11" style="stroke:#A80036;stroke-width:1.0;"/><path d="M379.4531,629.4375 Q378.5313,630.3594 376.2656,630.3594 Q375,630.3594 374.0781,629.4375 Q372.4219,627.7813 372.4219,624.25 Q372.4219,620.1406 374.2031,618.3438 Q375.1406,617.4219 376.3281,617.4219 Q378.5938,617.4219 379.3281,618.1406 Q380.7188,619.5469 380.6563,621.9375 L378.1875,621.9375 Q378.125,619.8125 377.3906,619.0781 Q377,618.6719 376.3281,618.6719 Q376.3281,618.6719 376.2656,619.1406 Q374.9375,620.4688 374.9375,624.125 Q374.9375,627.3125 376.0781,628.4375 Q376.6094,628.9688 376.6094,628.9688 Q376.8594,628.9688 377.3906,628.4375 Q378.0625,627.7813 378.125,625.3906 L380.7188,625.3906 Q380.5156,628.375 379.4531,629.4375 Z " fill="#000000"/><text fill="#000000" font-family="sans-serif" font-size="12" lengthAdjust="spacing" textLength="17" x="397.25" y="628.9102">tag</text><line style="stroke:#A80036;stroke-width:1.5;" x1="331.5" x2="447.5" y1="640" y2="640"/><ellipse cx="341.5" cy="651" fill="#84BE84" rx="3" ry="3" style="stroke:#038048;stroke-width:1.0;"/><text fill="#000000" font-family="sans-serif" font-size="11" lengthAdjust="spacing" textLength="65" x="350.5" y="655.4189">id : String(32)</text><line style="stroke:#A80036;stroke-width:1.0;" x1="331.5" x2="447.5" y1="661.8359" y2="661.8359"/><text fill="#000000" font-family="sans-serif" font-size="11" lengthAdjust="spacing" textLength="83" x="336.5" y="677.2549">name : String(32)</text><text fill="#000000" font-family="sans-serif" font-size="11" lengthAdjust="spacing" textLength="106" x="336.5" y="691.0908">timestamp : Datetime()</text><!--MD5=[b82567b43fd8d4305ad28639bd202574]
class users_tag--><rect codeLine="62" fill="#FEFECE" filter="url(#fqx8awaxg8nst)" height="103.3438" id="users_tag" style="stroke:#A80036;stroke-width:1.5;" width="132" x="92.5" y="758"/><ellipse cx="127.3" cy="774" fill="#ADD1B2" rx="11" ry="11" style="stroke:#A80036;stroke-width:1.0;"/><path d="M130.0031,779.4375 Q129.0813,780.3594 126.8156,780.3594 Q125.55,780.3594 124.6281,779.4375 Q122.9719,777.7813 122.9719,774.25 Q122.9719,770.1406 124.7531,768.3438 Q125.6906,767.4219 126.8781,767.4219 Q129.1438,767.4219 129.8781,768.1406 Q131.2688,769.5469 131.2063,771.9375 L128.7375,771.9375 Q128.675,769.8125 127.9406,769.0781 Q127.55,768.6719 126.8781,768.6719 Q126.8781,768.6719 126.8156,769.1406 Q125.4875,770.4688 125.4875,774.125 Q125.4875,777.3125 126.6281,778.4375 Q127.1594,778.9688 127.1594,778.9688 Q127.4094,778.9688 127.9406,778.4375 Q128.6125,777.7813 128.675,775.3906 L131.2688,775.3906 Q131.0656,778.375 130.0031,779.4375 Z " fill="#000000"/><text fill="#000000" font-family="sans-serif" font-size="12" lengthAdjust="spacing" textLength="56" x="145.7" y="778.9102">users_tag</text><line style="stroke:#A80036;stroke-width:1.5;" x1="93.5" x2="223.5" y1="790" y2="790"/><ellipse cx="103.5" cy="801" fill="#84BE84" rx="3" ry="3" style="stroke:#038048;stroke-width:1.0;"/><text fill="#000000" font-family="sans-serif" font-size="11" lengthAdjust="spacing" textLength="65" x="112.5" y="805.4189">id : String(32)</text><line style="stroke:#A80036;stroke-width:1.0;" x1="93.5" x2="223.5" y1="811.8359" y2="811.8359"/><polygon fill="#FFFF44" points="103.5,817.8359,107.5,821.8359,103.5,825.8359,99.5,821.8359" style="stroke:#B38D22;stroke-width:1.0;"/><text fill="#000000" font-family="sans-serif" font-size="11" lengthAdjust="spacing" textLength="93" x="112.5" y="827.2549">user_id : String(32)</text><polygon fill="#FFFF44" points="103.5,831.6719,107.5,835.6719,103.5,839.6719,99.5,835.6719" style="stroke:#B38D22;stroke-width:1.0;"/><text fill="#000000" font-family="sans-serif" font-size="11" lengthAdjust="spacing" textLength="86" x="112.5" y="841.0908">tag_id : String(32)</text><text fill="#000000" font-family="sans-serif" font-size="11" lengthAdjust="spacing" textLength="106" x="112.5" y="854.9268">timestamp : Datetime()</text><!--MD5=[2bc6c74f0d90f2903df4590535b405a7]
class menta_tag--><rect codeLine="73" fill="#FEFECE" filter="url(#fqx8awaxg8nst)" height="117.1797" id="menta_tag" style="stroke:#A80036;stroke-width:1.5;" width="137" x="496" y="424"/><ellipse cx="531.7" cy="440" fill="#ADD1B2" rx="11" ry="11" style="stroke:#A80036;stroke-width:1.0;"/><path d="M534.4031,445.4375 Q533.4813,446.3594 531.2156,446.3594 Q529.95,446.3594 529.0281,445.4375 Q527.3719,443.7813 527.3719,440.25 Q527.3719,436.1406 529.1531,434.3438 Q530.0906,433.4219 531.2781,433.4219 Q533.5438,433.4219 534.2781,434.1406 Q535.6688,435.5469 535.6063,437.9375 L533.1375,437.9375 Q533.075,435.8125 532.3406,435.0781 Q531.95,434.6719 531.2781,434.6719 Q531.2781,434.6719 531.2156,435.1406 Q529.8875,436.4688 529.8875,440.125 Q529.8875,443.3125 531.0281,444.4375 Q531.5594,444.9688 531.5594,444.9688 Q531.8094,444.9688 532.3406,444.4375 Q533.0125,443.7813 533.075,441.3906 L535.6688,441.3906 Q535.4656,444.375 534.4031,445.4375 Z " fill="#000000"/><text fill="#000000" font-family="sans-serif" font-size="12" lengthAdjust="spacing" textLength="59" x="550.3" y="444.9102">menta_tag</text><line style="stroke:#A80036;stroke-width:1.5;" x1="497" x2="632" y1="456" y2="456"/><ellipse cx="507" cy="467" fill="#84BE84" rx="3" ry="3" style="stroke:#038048;stroke-width:1.0;"/><text fill="#000000" font-family="sans-serif" font-size="11" lengthAdjust="spacing" textLength="65" x="516" y="471.4189">id : String(32)</text><line style="stroke:#A80036;stroke-width:1.0;" x1="497" x2="632" y1="477.8359" y2="477.8359"/><polygon fill="#FFFF44" points="507,483.8359,511,487.8359,507,491.8359,503,487.8359" style="stroke:#B38D22;stroke-width:1.0;"/><text fill="#000000" font-family="sans-serif" font-size="11" lengthAdjust="spacing" textLength="100" x="516" y="493.2549">menta_id : String(32)</text><polygon fill="#FFFF44" points="507,497.6719,511,501.6719,507,505.6719,503,501.6719" style="stroke:#B38D22;stroke-width:1.0;"/><text fill="#000000" font-family="sans-serif" font-size="11" lengthAdjust="spacing" textLength="86" x="516" y="507.0908">tag_id : String(32)</text><text fill="#000000" font-family="sans-serif" font-size="11" lengthAdjust="spacing" textLength="111" x="516" y="520.9268">experience : String(32)</text><text fill="#000000" font-family="sans-serif" font-size="11" lengthAdjust="spacing" textLength="106" x="516" y="534.7627">timestamp : Datetime()</text><!--MD5=[95b683c1b1f07077491d9b9a1eb4d251]
class like--><rect codeLine="82" fill="#FEFECE" filter="url(#fqx8awaxg8nst)" height="117.1797" id="like" style="stroke:#A80036;stroke-width:1.5;" width="132" x="155.5" y="424"/><ellipse cx="207.75" cy="440" fill="#ADD1B2" rx="11" ry="11" style="stroke:#A80036;stroke-width:1.0;"/><path d="M210.4531,445.4375 Q209.5313,446.3594 207.2656,446.3594 Q206,446.3594 205.0781,445.4375 Q203.4219,443.7813 203.4219,440.25 Q203.4219,436.1406 205.2031,434.3438 Q206.1406,433.4219 207.3281,433.4219 Q209.5938,433.4219 210.3281,434.1406 Q211.7188,435.5469 211.6563,437.9375 L209.1875,437.9375 Q209.125,435.8125 208.3906,435.0781 Q208,434.6719 207.3281,434.6719 Q207.3281,434.6719 207.2656,435.1406 Q205.9375,436.4688 205.9375,440.125 Q205.9375,443.3125 207.0781,444.4375 Q207.6094,444.9688 207.6094,444.9688 Q207.8594,444.9688 208.3906,444.4375 Q209.0625,443.7813 209.125,441.3906 L211.7188,441.3906 Q211.5156,444.375 210.4531,445.4375 Z " fill="#000000"/><text fill="#000000" font-family="sans-serif" font-size="12" lengthAdjust="spacing" textLength="19" x="228.25" y="444.9102">like</text><line style="stroke:#A80036;stroke-width:1.5;" x1="156.5" x2="286.5" y1="456" y2="456"/><ellipse cx="166.5" cy="467" fill="#84BE84" rx="3" ry="3" style="stroke:#038048;stroke-width:1.0;"/><text fill="#000000" font-family="sans-serif" font-size="11" lengthAdjust="spacing" textLength="65" x="175.5" y="471.4189">id : String(32)</text><line style="stroke:#A80036;stroke-width:1.0;" x1="156.5" x2="286.5" y1="477.8359" y2="477.8359"/><polygon fill="#FFFF44" points="166.5,483.8359,170.5,487.8359,166.5,491.8359,162.5,487.8359" style="stroke:#B38D22;stroke-width:1.0;"/><text fill="#000000" font-family="sans-serif" font-size="11" lengthAdjust="spacing" textLength="100" x="175.5" y="493.2549">menta_id : String(32)</text><polygon fill="#FFFF44" points="166.5,497.6719,170.5,501.6719,166.5,505.6719,162.5,501.6719" style="stroke:#B38D22;stroke-width:1.0;"/><text fill="#000000" font-family="sans-serif" font-size="11" lengthAdjust="spacing" textLength="93" x="175.5" y="507.0908">user_id : String(32)</text><text fill="#000000" font-family="sans-serif" font-size="11" lengthAdjust="spacing" textLength="74" x="175.5" y="520.9268">status : Bool(1)</text><text fill="#000000" font-family="sans-serif" font-size="11" lengthAdjust="spacing" textLength="106" x="175.5" y="534.7627">timestamp : Datetime()</text><!--MD5=[5c19f40aa9512e90106447142f5d7dc3]
class contract--><rect codeLine="98" fill="#FEFECE" filter="url(#fqx8awaxg8nst)" height="103.3438" id="contract" style="stroke:#A80036;stroke-width:1.5;" width="132" x="330.5" y="14"/><ellipse cx="371.15" cy="30" fill="#ADD1B2" rx="11" ry="11" style="stroke:#A80036;stroke-width:1.0;"/><path d="M373.8531,35.4375 Q372.9313,36.3594 370.6656,36.3594 Q369.4,36.3594 368.4781,35.4375 Q366.8219,33.7813 366.8219,30.25 Q366.8219,26.1406 368.6031,24.3438 Q369.5406,23.4219 370.7281,23.4219 Q372.9938,23.4219 373.7281,24.1406 Q375.1188,25.5469 375.0563,27.9375 L372.5875,27.9375 Q372.525,25.8125 371.7906,25.0781 Q371.4,24.6719 370.7281,24.6719 Q370.7281,24.6719 370.6656,25.1406 Q369.3375,26.4688 369.3375,30.125 Q369.3375,33.3125 370.4781,34.4375 Q371.0094,34.9688 371.0094,34.9688 Q371.2594,34.9688 371.7906,34.4375 Q372.4625,33.7813 372.525,31.3906 L375.1188,31.3906 Q374.9156,34.375 373.8531,35.4375 Z " fill="#000000"/><text fill="#000000" font-family="sans-serif" font-size="12" lengthAdjust="spacing" textLength="43" x="390.85" y="34.9102">contract</text><line style="stroke:#A80036;stroke-width:1.5;" x1="331.5" x2="461.5" y1="46" y2="46"/><ellipse cx="341.5" cy="57" fill="#84BE84" rx="3" ry="3" style="stroke:#038048;stroke-width:1.0;"/><text fill="#000000" font-family="sans-serif" font-size="11" lengthAdjust="spacing" textLength="62" x="350.5" y="61.4189">id :String(32)</text><line style="stroke:#A80036;stroke-width:1.0;" x1="331.5" x2="461.5" y1="67.8359" y2="67.8359"/><polygon fill="#FFFF44" points="341.5,73.8359,345.5,77.8359,341.5,81.8359,337.5,77.8359" style="stroke:#B38D22;stroke-width:1.0;"/><text fill="#000000" font-family="sans-serif" font-size="11" lengthAdjust="spacing" textLength="97" x="350.5" y="83.2549">menta_id: String(32)</text><polygon fill="#FFFF44" points="341.5,87.6719,345.5,91.6719,341.5,95.6719,337.5,91.6719" style="stroke:#B38D22;stroke-width:1.0;"/><text fill="#000000" font-family="sans-serif" font-size="11" lengthAdjust="spacing" textLength="90" x="350.5" y="97.0908">user_id: String(32)</text><text fill="#000000" font-family="sans-serif" font-size="11" lengthAdjust="spacing" textLength="106" x="350.5" y="110.9268">timestamp : Datetime()</text><!--MD5=[61b79dafd5b2738e8529a55c83a16b82]
class none--><rect codeLine="109" fill="#FEFECE" filter="url(#fqx8awaxg8nst)" height="117.1797" id="none" style="stroke:#A80036;stroke-width:1.5;" width="132" x="163.5" y="7"/><ellipse cx="211.25" cy="23" fill="#ADD1B2" rx="11" ry="11" style="stroke:#A80036;stroke-width:1.0;"/><path d="M213.9531,28.4375 Q213.0313,29.3594 210.7656,29.3594 Q209.5,29.3594 208.5781,28.4375 Q206.9219,26.7813 206.9219,23.25 Q206.9219,19.1406 208.7031,17.3438 Q209.6406,16.4219 210.8281,16.4219 Q213.0938,16.4219 213.8281,17.1406 Q215.2188,18.5469 215.1563,20.9375 L212.6875,20.9375 Q212.625,18.8125 211.8906,18.0781 Q211.5,17.6719 210.8281,17.6719 Q210.8281,17.6719 210.7656,18.1406 Q209.4375,19.4688 209.4375,23.125 Q209.4375,26.3125 210.5781,27.4375 Q211.1094,27.9688 211.1094,27.9688 Q211.3594,27.9688 211.8906,27.4375 Q212.5625,26.7813 212.625,24.3906 L215.2188,24.3906 Q215.0156,27.375 213.9531,28.4375 Z " fill="#000000"/><text fill="#000000" font-family="sans-serif" font-size="12" lengthAdjust="spacing" textLength="28" x="231.75" y="27.9102">none</text><line style="stroke:#A80036;stroke-width:1.5;" x1="164.5" x2="294.5" y1="39" y2="39"/><ellipse cx="174.5" cy="50" fill="#84BE84" rx="3" ry="3" style="stroke:#038048;stroke-width:1.0;"/><text fill="#000000" font-family="sans-serif" font-size="11" lengthAdjust="spacing" textLength="65" x="183.5" y="54.4189">id : String(32)</text><line style="stroke:#A80036;stroke-width:1.0;" x1="164.5" x2="294.5" y1="60.8359" y2="60.8359"/><polygon fill="#FFFF44" points="174.5,66.8359,178.5,70.8359,174.5,74.8359,170.5,70.8359" style="stroke:#B38D22;stroke-width:1.0;"/><text fill="#000000" font-family="sans-serif" font-size="11" lengthAdjust="spacing" textLength="100" x="183.5" y="76.2549">menta_id : String(32)</text><polygon fill="#FFFF44" points="174.5,80.6719,178.5,84.6719,174.5,88.6719,170.5,84.6719" style="stroke:#B38D22;stroke-width:1.0;"/><text fill="#000000" font-family="sans-serif" font-size="11" lengthAdjust="spacing" textLength="93" x="183.5" y="90.0908">user_id : String(32)</text><text fill="#000000" font-family="sans-serif" font-size="11" lengthAdjust="spacing" textLength="60" x="183.5" y="103.9268">date : Date()</text><text fill="#000000" font-family="sans-serif" font-size="11" lengthAdjust="spacing" textLength="106" x="183.5" y="117.7627">timestamp : Datetime()</text><!--MD5=[05455a1839cd908d58cf731f593ff07b]
class creditcard--><rect codeLine="122" fill="#FEFECE" filter="url(#fqx8awaxg8nst)" height="117.1797" id="creditcard" style="stroke:#A80036;stroke-width:1.5;" width="119" x="9" y="7"/><ellipse cx="38.85" cy="23" fill="#ADD1B2" rx="11" ry="11" style="stroke:#A80036;stroke-width:1.0;"/><path d="M41.5531,28.4375 Q40.6313,29.3594 38.3656,29.3594 Q37.1,29.3594 36.1781,28.4375 Q34.5219,26.7813 34.5219,23.25 Q34.5219,19.1406 36.3031,17.3438 Q37.2406,16.4219 38.4281,16.4219 Q40.6938,16.4219 41.4281,17.1406 Q42.8188,18.5469 42.7563,20.9375 L40.2875,20.9375 Q40.225,18.8125 39.4906,18.0781 Q39.1,17.6719 38.4281,17.6719 Q38.4281,17.6719 38.3656,18.1406 Q37.0375,19.4688 37.0375,23.125 Q37.0375,26.3125 38.1781,27.4375 Q38.7094,27.9688 38.7094,27.9688 Q38.9594,27.9688 39.4906,27.4375 Q40.1625,26.7813 40.225,24.3906 L42.8188,24.3906 Q42.6156,27.375 41.5531,28.4375 Z " fill="#000000"/><text fill="#000000" font-family="sans-serif" font-size="12" lengthAdjust="spacing" textLength="54" x="56.15" y="27.9102">creditcard</text><line style="stroke:#A80036;stroke-width:1.5;" x1="10" x2="127" y1="39" y2="39"/><line style="stroke:#A80036;stroke-width:1.5;" x1="10" x2="127" y1="47" y2="47"/><polygon fill="#FFFF44" points="20,53,24,57,20,61,16,57" style="stroke:#B38D22;stroke-width:1.0;"/><text fill="#000000" font-family="sans-serif" font-size="11" lengthAdjust="spacing" textLength="93" x="29" y="62.4189">user_id : String(32)</text><text fill="#000000" font-family="sans-serif" font-size="11" lengthAdjust="spacing" textLength="93" x="29" y="76.2549">number : String(32)</text><text fill="#000000" font-family="sans-serif" font-size="11" lengthAdjust="spacing" textLength="89" x="29" y="90.0908">name : String(128)</text><text fill="#000000" font-family="sans-serif" font-size="11" lengthAdjust="spacing" textLength="74" x="29" y="103.9268">limit : String(16)</text><text fill="#000000" font-family="sans-serif" font-size="11" lengthAdjust="spacing" textLength="75" x="29" y="117.7627">code : String(4)</text><!--MD5=[03e818f0ac14b65b45132e236d4503e7]
link users to menta--><path codeLine="130" d="M288.68,270.5 C301.55,270.5 314.41,270.5 327.27,270.5 " fill="none" id="users-menta" style="stroke:#A80036;stroke-width:1.0;"/><!--MD5=[00f6f00dd50539ec86e37d69890f0a0c]
link users to like--><path codeLine="131" d="M226.77,343.18 C225.87,366.67 224.89,392.64 224.01,415.68 " fill="none" id="users-to-like" style="stroke:#A80036;stroke-width:1.0;"/><line style="stroke:#A80036;stroke-width:1.0;" x1="224.0146" x2="231.6938" y1="415.6962" y2="423.69"/><line style="stroke:#A80036;stroke-width:1.0;" x1="224.0146" x2="215.7062" y1="415.6962" y2="423.69"/><line style="stroke:#A80036;stroke-width:1.0;" x1="224.0146" x2="223.7" y1="415.6962" y2="423.69"/><!--MD5=[4b4f66a22fdf7e2a600f5c799ca0290c]
link menta to like--><path codeLine="132" d="M327.4,346.72 C309.22,369.86 289.39,395.1 271.85,417.42 " fill="none" id="menta-to-like" style="stroke:#A80036;stroke-width:1.0;"/><line style="stroke:#A80036;stroke-width:1.0;" x1="271.6751" x2="273.0186" y1="417.6414" y2="423.93"/><line style="stroke:#A80036;stroke-width:1.0;" x1="271.6751" x2="260.4414" y1="417.6414" y2="423.93"/><line style="stroke:#A80036;stroke-width:1.0;" x1="271.6751" x2="266.73" y1="417.6414" y2="423.93"/><!--MD5=[a233d67361a065f07760f759494cee33]
link contract to users--><path codeLine="133" d="M354.79,117.2 C336.35,139.61 314.26,166.47 293.79,191.35 " fill="none" id="contract-to-users" style="stroke:#A80036;stroke-width:1.0;"/><line style="stroke:#A80036;stroke-width:1.0;" x1="293.6921" x2="288.62" y1="191.4434" y2="202.7021"/><line style="stroke:#A80036;stroke-width:1.0;" x1="293.6921" x2="288.62" y1="191.4434" y2="192.5579"/><line style="stroke:#A80036;stroke-width:1.0;" x1="293.6921" x2="288.62" y1="191.4434" y2="197.63"/><!--MD5=[336ad18a4fc2ffa923cb1868d194f95e]
link contract to menta--><path codeLine="134" d="M394,117.2 C393.12,135.03 392.11,155.68 391.11,175.91 " fill="none" id="contract-to-menta" style="stroke:#A80036;stroke-width:1.0;"/><line style="stroke:#A80036;stroke-width:1.0;" x1="391.1095" x2="398.7" y1="175.95" y2="183.94"/><line style="stroke:#A80036;stroke-width:1.0;" x1="391.1095" x2="382.72" y1="175.95" y2="183.94"/><line style="stroke:#A80036;stroke-width:1.0;" x1="391.1095" x2="390.71" y1="175.95" y2="183.94"/><!--MD5=[4edbbe3b62a96c75be1f500c173e7296]
reverse link none to users--><path codeLine="135" d="M229.5,132.35 C229.5,153.32 229.5,176.63 229.5,197.98 " fill="none" id="none-backto-users" style="stroke:#A80036;stroke-width:1.0;"/><line style="stroke:#A80036;stroke-width:1.0;" x1="229.5" x2="221.5" y1="132.13" y2="124.13"/><line style="stroke:#A80036;stroke-width:1.0;" x1="229.5" x2="237.5" y1="132.13" y2="124.13"/><line style="stroke:#A80036;stroke-width:1.0;" x1="229.5" x2="229.5" y1="132.13" y2="124.13"/><!--MD5=[bb9d41c3d3ff7bc48b73c642d9b053e5]
link none to menta--><path codeLine="136" d="M274.07,124.13 C289.1,143.57 306.2,165.67 322.43,186.66 " fill="none" id="none-to-menta" style="stroke:#A80036;stroke-width:1.0;"/><line style="stroke:#A80036;stroke-width:1.0;" x1="322.5513" x2="327.44" y1="186.8075" y2="188.2513"/><line style="stroke:#A80036;stroke-width:1.0;" x1="322.5513" x2="327.44" y1="186.8075" y2="198.0287"/><line style="stroke:#A80036;stroke-width:1.0;" x1="322.5513" x2="327.44" y1="186.8075" y2="193.14"/><!--MD5=[772662077395d7f04f5540f97cba82d2]
link tag to users_tag--><path codeLine="137" d="M330.31,693.59 C300.24,713.7 263.41,738.33 231.58,759.62 " fill="none" id="tag-to-users_tag" style="stroke:#A80036;stroke-width:1.0;"/><line style="stroke:#A80036;stroke-width:1.0;" x1="231.5176" x2="224.87" y1="759.6592" y2="770.7576"/><line style="stroke:#A80036;stroke-width:1.0;" x1="231.5176" x2="224.87" y1="759.6592" y2="757.4624"/><line style="stroke:#A80036;stroke-width:1.0;" x1="231.5176" x2="224.87" y1="759.6592" y2="764.11"/><!--MD5=[920d0215737600301cd2af09d49a3ca3]
reverse link menta_tag to tag--><path codeLine="138" d="M498.86,546.7 C477.75,567.03 454.82,589.11 435.43,607.77 " fill="none" id="menta_tag-backto-tag" style="stroke:#A80036;stroke-width:1.0;"/><line style="stroke:#A80036;stroke-width:1.0;" x1="498.9969" x2="499.2114" y1="546.5686" y2="541.02"/><line style="stroke:#A80036;stroke-width:1.0;" x1="498.9969" x2="510.3086" y1="546.5686" y2="541.02"/><line style="stroke:#A80036;stroke-width:1.0;" x1="498.9969" x2="504.76" y1="546.5686" y2="541.02"/><!--MD5=[d8a2f484410a5a2f6390bc7482bb9554]
link users to users_tag--><path codeLine="139" d="M173.06,343.1 C158.58,365.51 144.98,391.16 137.5,417 C104.43,531.18 126.25,671.77 143.46,749.6 " fill="none" id="users-to-users_tag" style="stroke:#A80036;stroke-width:1.0;"/><line style="stroke:#A80036;stroke-width:1.0;" x1="143.5649" x2="153.1251" y1="750.0449" y2="757.85"/><line style="stroke:#A80036;stroke-width:1.0;" x1="143.5649" x2="137.5149" y1="750.0449" y2="757.85"/><line style="stroke:#A80036;stroke-width:1.0;" x1="143.5649" x2="145.32" y1="750.0449" y2="757.85"/><!--MD5=[f0a42e61a63e6e0bb25c2d0526302b52]
link menta to menta_tag--><path codeLine="140" d="M445.52,341.14 C466.43,365.79 489.83,393.4 510.31,417.56 " fill="none" id="menta-to-menta_tag" style="stroke:#A80036;stroke-width:1.0;"/><line style="stroke:#A80036;stroke-width:1.0;" x1="510.5537" x2="521.8282" y1="417.8418" y2="423.95"/><line style="stroke:#A80036;stroke-width:1.0;" x1="510.5537" x2="509.6118" y1="417.8418" y2="423.95"/><line style="stroke:#A80036;stroke-width:1.0;" x1="510.5537" x2="515.72" y1="417.8418" y2="423.95"/><!--MD5=[ef87b5cfe614b95a8f4181a4fc27e786]
reverse link review to users--><path codeLine="141" d="M336.71,410.48 C319.97,388.78 301.57,364.92 284.8,343.18 " fill="none" id="review-backto-users" style="stroke:#A80036;stroke-width:1.0;"/><line style="stroke:#A80036;stroke-width:1.0;" x1="336.7213" x2="347.9425" y1="410.4975" y2="416.83"/><line style="stroke:#A80036;stroke-width:1.0;" x1="336.7213" x2="335.2775" y1="410.4975" y2="416.83"/><line style="stroke:#A80036;stroke-width:1.0;" x1="336.7213" x2="341.61" y1="410.4975" y2="416.83"/><!--MD5=[840f0d10f39b608aed886aeb34cebefb]
link menta to review--><path codeLine="142" d="M388.54,357.22 C388.95,374.37 389.37,392.24 389.77,408.89 " fill="none" id="menta-to-review" style="stroke:#A80036;stroke-width:1.0;"/><line style="stroke:#A80036;stroke-width:1.0;" x1="389.7601" x2="397.9575" y1="408.9725" y2="416.97"/><line style="stroke:#A80036;stroke-width:1.0;" x1="389.7601" x2="381.9625" y1="408.9725" y2="416.97"/><line style="stroke:#A80036;stroke-width:1.0;" x1="389.7601" x2="389.96" y1="408.9725" y2="416.97"/><!--MD5=[a581cb18428e5f75ecf946e698466a1b]
link creditcard to users--><path codeLine="143" d="M114.21,124.13 C132.43,147.1 153.59,173.79 172.78,197.98 " fill="none" id="creditcard-users" style="stroke:#A80036;stroke-width:1.0;"/><!--MD5=[e2ed1e187281aafacdfd8653c12c5101]
@startuml ER

class users {
    + id : String(32)
    - - -
    uuid : String(32)
    name : String(64)
    mail : String(240) 
    birth: Date()
    timestamp : Datetime()
    status : Boolen()
}
/'
    クライアント

    birth: 誕生日
    status: アカウントの有効状態
'/

class menta {
    + id : String(32)
    - - -
    uuid : String(32)
    name : String(64)
    mail : String(240)
    birth : Date()
    profile : String(1024)
    url : String(124)
    timestamp : Datetime()
    status : Boolen()
}
/'
    メンター

    profile: ポートフォリオ
    url:  youtube url
    status: 有効状態
    
    終了条件をプロフィールに明示する
    完了せずに契約終了した場合返金処理
'/

class review {
    + id : String(32)
    - - -
    # menta_id : String(32)
    # user_id : String(32)
    star : Int(1)
    comment : String(1024)
    timestamp : Datetime()
}

class tag {
    + id : String(32)
    - - -
    name : String(32)
    timestamp : Datetime()
}
/'
    分野
'/

class users_tag {
    + id : String(32)
    - - -
    # user_id : String(32)
    # tag_id : String(32)
    timestamp : Datetime()
}
/'
    userとタグの関連付け
'/  

class menta_tag {
    + id : String(32)
    - - -
    # menta_id : String(32)
    # tag_id : String(32)
    experience : String(32)
    timestamp : Datetime()
}

class like {
    ' 契約前
    + id : String(32)
    - - -
    # menta_id : String(32)
    # user_id : String(32)
    status : Bool(1)
    timestamp : Datetime()
}
/'
    契約前
    menta_id: サービス提供者
    user_id: 依頼者
    status: 1で有効0で無効
'/

class contract {
    + id :String(32)
    - - -
    # menta_id: String(32)
    # user_id: String(32)
    timestamp : Datetime()
}
/'
    契約済み
'/

class none {
    + id : String(32)
    - - -
    # menta_id : String(32)
    # user_id : String(32)
    date : Date()
    timestamp : Datetime()
}
/'
    noneされた人
    一か月表示しない
'/

class creditcard {
    # user_id : String(32)
    number : String(32)
    name : String(128)
    limit : String(16)
    code : String(4)
}

users - menta
users -{ like
menta - -{ like
contract - -{ users
contract - -{ menta
none }- - users
none - -{ menta
tag - -{ users_tag
menta_tag }- - tag
users -{ users_tag
menta - -{ menta_tag
review }- - users
menta - -{ review
creditcard - - users
@enduml

@startuml ER

class users {
    + id : String(32)
    - - -
    uuid : String(32)
    name : String(64)
    mail : String(240) 
    birth: Date()
    timestamp : Datetime()
    status : Boolen()
}

class menta {
    + id : String(32)
    - - -
    uuid : String(32)
    name : String(64)
    mail : String(240)
    birth : Date()
    profile : String(1024)
    url : String(124)
    timestamp : Datetime()
    status : Boolen()
}

class review {
    + id : String(32)
    - - -
    # menta_id : String(32)
    # user_id : String(32)
    star : Int(1)
    comment : String(1024)
    timestamp : Datetime()
}

class tag {
    + id : String(32)
    - - -
    name : String(32)
    timestamp : Datetime()
}

class users_tag {
    + id : String(32)
    - - -
    # user_id : String(32)
    # tag_id : String(32)
    timestamp : Datetime()
}

class menta_tag {
    + id : String(32)
    - - -
    # menta_id : String(32)
    # tag_id : String(32)
    experience : String(32)
    timestamp : Datetime()
}

class like {
    + id : String(32)
    - - -
    # menta_id : String(32)
    # user_id : String(32)
    status : Bool(1)
    timestamp : Datetime()
}

class contract {
    + id :String(32)
    - - -
    # menta_id: String(32)
    # user_id: String(32)
    timestamp : Datetime()
}

class none {
    + id : String(32)
    - - -
    # menta_id : String(32)
    # user_id : String(32)
    date : Date()
    timestamp : Datetime()
}

class creditcard {
    # user_id : String(32)
    number : String(32)
    name : String(128)
    limit : String(16)
    code : String(4)
}

users - menta
users -{ like
menta - -{ like
contract - -{ users
contract - -{ menta
none }- - users
none - -{ menta
tag - -{ users_tag
menta_tag }- - tag
users -{ users_tag
menta - -{ menta_tag
review }- - users
menta - -{ review
creditcard - - users
@enduml

PlantUML version 1.2021.16(Thu Dec 09 02:25:22 JST 2021)
(GPL source distribution)
Java Runtime: Java(TM) SE Runtime Environment
JVM: Java HotSpot(TM) 64-Bit Server VM
Default Encoding: MS932
Language: ja
Country: JP
--></g></svg>